<svg xmlns="http://www.w3.org/2000/svg" xmlns:ev="http://www.w3.org/2001/xml-events" xmlns:xlink="http://www.w3.org/1999/xlink" width="1011.485" height="936.689" class="st48" color-interpolation-filters="sRGB" viewBox="0 0 758.613 702.517" xml:space="preserve"><style type="text/css">.st1{fill:#fff;stroke:#000;stroke-linecap:round;stroke-linejoin:round;stroke-width:.75}.st2{fill:#000;font-family:Calibri;font-size:.666664em;font-stretch:semi-expanded}.st3,.st4{fill:#fff;stroke:none;stroke-linecap:round;stroke-linejoin:round;stroke-width:.24}.st4{stroke:#000;stroke-dasharray:1.75,1.25;stroke-width:.25}.st5,.st6{fill:red;stroke:red;stroke-linecap:butt;stroke-width:.75}.st6{fill:#7030a0;stroke:#7030a0}.st7{fill:#fff;stroke:#000;stroke-width:.24}.st7,.st8,.st9{stroke-linecap:round;stroke-linejoin:round}.st8{fill:#fff;stroke:#000;stroke-dasharray:.24,.48;stroke-width:.24}.st9{fill:none;stroke:none;stroke-width:.75}.st10{fill:#000;font-family:Calibri;font-size:.499992em}.st11{font-size:1em}.st12{font-size:.416656em}.st12,.st13,.st14,.st15{fill:#000;font-family:Calibri}.st13{font-size:.333344em}.st14{font-size:.166672em}.st15{font-size:.75em}.st16{font-size:.444458em}.st17{stroke:#000;stroke-linecap:round;stroke-linejoin:round;stroke-width:.75}.st18,.st19{fill:#000;font-family:Calibri;font-size:.250008em}.st19{fill:#50632a}.st20{stroke:#000;stroke-linecap:round;stroke-linejoin:round;stroke-width:.25}.st21{font-size:.291664em}.st21,.st22,.st23{fill:#000;font-family:Calibri}.st22{font-size:.833336em}.st23{font-size:.541672em}.st24{fill:#fff;stroke:#000;stroke-dasharray:1,2;stroke-linecap:round;stroke-linejoin:round;stroke-width:1}.st25{fill:#000;font-family:Calibri;font-size:.583328em}.st26{stroke:#000;stroke-dasharray:.75,1.5;stroke-width:.75}.st26,.st27,.st28{stroke-linecap:round;stroke-linejoin:round}.st27{stroke:#000;stroke-dasharray:.25,.5;stroke-width:.25}.st28{fill:#fff;stroke:#00b050;stroke-width:.24}.st29,.st30{fill:#00b050;font-family:Calibri;font-size:.416656em}.st30{font-size:.333344em}.st31{fill:#fff;stroke:#00b050;stroke-dasharray:.24,.48;stroke-linecap:round;stroke-linejoin:round;stroke-width:.24}.st32{font-size:.166672em}.st32,.st33,.st34{fill:#00b050;font-family:Calibri}.st33{font-size:.0833359em}.st34{font-size:.250008em}.st35,.st36{fill:#92d050;stroke:#92d050;stroke-linecap:butt;stroke-width:.75}.st36{fill:#595959;stroke:none}.st37{stroke:#7030a0}.st37,.st38,.st39,.st40{stroke-linecap:round;stroke-linejoin:round;stroke-width:.25}.st38{stroke:#92d050}.st39{stroke:#ffc000}.st40{stroke:red}.st41{fill:#ffc000;stroke:#ffc000;stroke-linecap:butt;stroke-width:.75}.st42,.st43{fill:#fff;stroke:#000;stroke-dasharray:1.68,1.2,0,1.2,0,1.2;stroke-linecap:round;stroke-linejoin:round;stroke-width:.24}.st43{stroke-dasharray:1.75,1.25,0,1.25,0,1.25;stroke-width:.25}.st44,.st45{stroke:#0070c0}.st44{stroke-linecap:round;stroke-linejoin:round;stroke-width:.25}.st45{fill:#0070c0;stroke-linecap:butt;stroke-width:.75}.st46,.st47{stroke:#ea700d}.st46{stroke-linecap:round;stroke-linejoin:round;stroke-width:.25}.st47{fill:#ea700d;stroke-linecap:butt;stroke-width:.75}.st48{fill:none;fill-rule:evenodd;font-size:12px;overflow:visible;stroke-linecap:square;stroke-miterlimit:3}</style><defs id="Patterns_And_Gradients"><linearGradient id="grad0-11" x1="0" x2="1" y1="0" y2="0" gradientTransform="rotate(90 0.5 0.5)"><stop offset=".01" stop-color="#fff" stop-opacity="1"/><stop offset=".5" stop-color="#fefefe" stop-opacity="1"/><stop offset="1" stop-color="#fff" stop-opacity="1"/></linearGradient><linearGradient id="grad0-15" x1="0" x2="1" y1="0" y2="0" gradientTransform="rotate(270 0.5 0.5)"><stop offset="0" stop-color="#fefefe" stop-opacity="1"/><stop offset="1" stop-color="#fff" stop-opacity="1"/></linearGradient></defs><g><title>Page-1</title><g id="group1-1" transform="translate(49.5561,-262.154)"><title>Plain</title><g id="group2-2"><title>Sheet.2</title><g id="shape3-3" transform="translate(2.83465,2.83465)"><title>Sheet.3</title></g><g id="shape2-5"><path d="M0 702.52 L156.58 702.52 L313.17 702.52 L313.17 438.03 L156.58 438.03 L0 438.03 L0 702.52 Z" class="st1"/></g></g><g id="group4-7" transform="translate(0,-243.226)"><title>Sheet.4</title><desc>Edge Controller</desc><g id="shape5-8"><title>Sheet.5</title></g><g id="shape4-12"><text x="6" y="694.29" class="st2">Edge Controller</text></g></g></g><g id="group6-17" transform="translate(388.602,-301.465)"><title>Plain.6</title><g id="group7-18"><title>Sheet.7</title><g id="shape8-19" transform="translate(2.83465,2.83465)"><title>Sheet.8</title></g><g id="shape7-21"><path d="M0 702.52 L136.97 702.52 L273.95 702.52 L273.95 419.82 L136.97 419.82 L0 419.82 L0 702.52 Z" class="st1"/></g></g><g id="group9-23" transform="translate(0,-261.434)"><title>Sheet.9</title><desc>Edge Node</desc><g id="shape10-24"><title>Sheet.10</title></g><g id="shape9-27"><text x="6" y="694.29" class="st2">Edge Node</text></g></g></g><g id="group210-31" transform="translate(385.034,-20.8346)"><title>Plain.210</title><g id="group211-32"><title>Sheet.211</title><g id="shape212-33" transform="translate(2.83465,2.83465)"><title>Sheet.212</title></g><g id="shape211-35"><path d="M0 702.52 L137.9 702.52 L275.79 702.52 L275.79 449.75 L137.9 449.75 L0 449.75 L0 702.52 Z" class="st1"/></g></g><g id="group213-37" transform="translate(0,-231.507)"><title>Sheet.213</title><desc>Edge Node</desc><g id="shape214-38"><title>Sheet.214</title></g><g id="shape213-41"><text x="6" y="694.29" class="st2">Edge Node</text></g></g></g><g id="shape1584-45" transform="translate(297.588,-357.51)"><title>Rectangle.1584</title><rect width="8.504" height="2.722" x="0" y="699.794" class="st3"/></g><g id="shape1570-47" transform="translate(398.218,-34.3737)"><title>Round Corner Rectangle.1568</title><path d="M23.81 702.52 L214.3 702.52 A23.8106 23.8106 -180 0 0 238.11 678.71 L238.11 525.25 A23.8106 23.8106 -180 0 0 214.3 501.44 L23.81 501.44 A23.8106 23.8106 -180 0 0 0 525.25 L0 678.71 A23.8106 23.8106 -180 0 0 23.81 702.52 Z" class="st4"/></g><g id="shape1023-49" transform="translate(398.218,-309.969)"><title>Round Corner Rectangle.1023</title><path d="M25.51 702.52 L229.61 702.52 A25.5114 25.5114 -180 0 0 255.12 677 L255.12 483.6 A25.5114 25.5114 -180 0 0 229.61 458.09 L25.51 458.09 A25.5114 25.5114 -180 0 0 -0 483.6 L0 677 A25.5114 25.5114 -180 0 0 25.51 702.52 Z" class="st4"/></g><g id="shape886-51" transform="translate(407.283,-369.496)"><title>Lock.886</title><path d="M5.49 698.18 C5.49 698.5 5.29 698.78 5.01 698.9 L5.22 700.57 L4.14 700.57 L4.35 698.9 C4.07 698.78 3.87 698.5 3.87 698.18 C3.87 697.74 4.23 697.38 4.68 697.38 C5.13 697.38 5.49 697.74 5.49 698.18 ZM8.64 701.45 L8.64 696.49 C8.64 696.3 8.48 696.14 8.28 696.14 L1.08 696.14 C0.88 696.14 0.72 696.3 0.72 696.49 L0.72 701.45 C0.72 701.65 0.88 701.81 1.08 701.81 L8.28 701.81 C8.48 701.81 8.64 701.65 8.64 701.45 ZM5.76 694.13 C5.73 693.68 5.25 693.3 4.68 693.3 C4.1 693.3 3.63 693.7 3.61 694.2 L3.6 694.2 L3.6 695.43 L5.76 695.43 L5.76 694.13 ZM2.16 694.1 C2.16 694.1 2.16 694.73 2.16 695.43 L2.88 695.43 C2.88 694.73 2.88 694.1 2.88 694.1 L2.89 694.17 C2.93 693.29 3.72 692.6 4.68 692.6 C5.64 692.6 6.43 693.27 6.48 694.1 C6.48 694.1 6.48 694.73 6.48 695.43 L7.2 695.43 C7.2 694.73 7.2 694.1 7.2 694.1 C7.13 692.87 6.03 691.89 4.68 691.89 C3.33 691.89 2.23 692.87 2.17 694.13 L2.16 694.1 ZM8.28 695.43 C8.88 695.43 9.36 695.91 9.36 696.49 L9.36 701.45 C9.36 702.04 8.88 702.52 8.28 702.52 L1.08 702.52 C0.48 702.52 0 702.04 0 701.45 L0 696.49 C0 695.91 0.48 695.43 1.08 695.43 L1.44 695.43 L1.44 694.1 L1.45 694.1 C1.53 692.47 2.94 691.18 4.68 691.18 C6.42 691.18 7.83 692.47 7.91 694.1 L7.92 694.1 L7.92 695.43 L8.28 695.43 Z" class="st5"/></g><g id="shape792-53" transform="translate(489.635,-461.622)"><title>Lock.792</title><path d="M5.49 698.18 C5.49 698.5 5.29 698.78 5.01 698.9 L5.22 700.57 L4.14 700.57 L4.35 698.9 C4.07 698.78 3.87 698.5 3.87 698.18 C3.87 697.74 4.23 697.38 4.68 697.38 C5.13 697.38 5.49 697.74 5.49 698.18 ZM8.64 701.45 L8.64 696.49 C8.64 696.3 8.48 696.14 8.28 696.14 L1.08 696.14 C0.88 696.14 0.72 696.3 0.72 696.49 L0.72 701.45 C0.72 701.65 0.88 701.81 1.08 701.81 L8.28 701.81 C8.48 701.81 8.64 701.65 8.64 701.45 ZM5.76 694.13 C5.73 693.68 5.25 693.3 4.68 693.3 C4.1 693.3 3.63 693.7 3.61 694.2 L3.6 694.2 L3.6 695.43 L5.76 695.43 L5.76 694.13 ZM2.16 694.1 C2.16 694.1 2.16 694.73 2.16 695.43 L2.88 695.43 C2.88 694.73 2.88 694.1 2.88 694.1 L2.89 694.17 C2.93 693.29 3.72 692.6 4.68 692.6 C5.64 692.6 6.43 693.27 6.48 694.1 C6.48 694.1 6.48 694.73 6.48 695.43 L7.2 695.43 C7.2 694.73 7.2 694.1 7.2 694.1 C7.13 692.87 6.03 691.89 4.68 691.89 C3.33 691.89 2.23 692.87 2.17 694.13 L2.16 694.1 ZM8.28 695.43 C8.88 695.43 9.36 695.91 9.36 696.49 L9.36 701.45 C9.36 702.04 8.88 702.52 8.28 702.52 L1.08 702.52 C0.48 702.52 0 702.04 0 701.45 L0 696.49 C0 695.91 0.48 695.43 1.08 695.43 L1.44 695.43 L1.44 694.1 L1.45 694.1 C1.53 692.47 2.94 691.18 4.68 691.18 C6.42 691.18 7.83 692.47 7.91 694.1 L7.92 694.1 L7.92 695.43 L8.28 695.43 Z" class="st6"/></g><g id="shape766-55" transform="translate(400.579,-489.974)"><title>Rectangle.766</title><rect width="78.476" height="51.864" x="0" y="650.653" class="st7"/></g><g id="shape366-57" transform="translate(105.895,-330.229)"><title>Rectangle.366</title><rect width="7.469" height="3.05" x="0" y="699.466" class="st7"/></g><g id="shape321-59" transform="translate(206.68,-388.844)"><title>Rectangle.321</title><path d="M0 702.52 L7.47 702.52 L7.47 699.47 L0 699.47 L0 702.52 Z" class="st8"/></g><g id="shape322-61" transform="translate(181.463,-372.331)"><title>Rectangle.322</title><path d="M0 702.52 L7.47 702.52 L7.47 699.47 L0 699.47 L0 702.52 Z" class="st8"/></g><g id="shape313-63" transform="translate(191.806,-364.895)"><title>Rectangle.313</title><rect width="7.469" height="3.05" x="0" y="699.466" class="st7"/></g><g id="shape308-65" transform="translate(214.786,-382.843)"><title>Rectangle.308</title><rect width="10.518" height="3.549" x="0" y="698.968" class="st7"/></g><g id="shape197-67" transform="translate(274.213,-309.867)"><title>Rectangle.197</title><rect width="7.469" height="3.05" x="0" y="699.466" class="st7"/></g><g id="shape198-69" transform="translate(240.267,-310.434)"><title>Rectangle.198</title><rect width="7.469" height="3.05" x="0" y="699.466" class="st7"/></g><g id="shape181-71" transform="translate(298.673,-261.989)"><title>Rectangle.181</title><rect width="7.469" height="3.05" x="0" y="699.466" class="st7"/></g><g id="shape59-73" transform="translate(585.631,-435.307)"><title>Sheet.59</title><rect width="45.354" height="10.158" x="0" y="692.359" class="st9"/></g><g id="shape94-75" transform="translate(18.375,-604.772)"><title>Sheet.94</title><desc>DS = DaemonSet Dep = Deployment</desc><rect width="73.701" height="28.346" x="0" y="674.17" class="st9"/><text x="16.57" y="686.54" class="st10">DS = DaemonSet<tspan x="14.07" class="st11" dy="1.2em">Dep = Deployment</tspan></text></g><g id="shape95-79" transform="translate(407.048,-445.765)"><title>Rectangle.95</title><rect width="48.189" height="19.37" x="0" y="683.147" class="st7"/></g><g id="shape98-81" transform="translate(397.127,-462.064)"><title>Sheet.98</title><desc>Pod (DS) - Privileged</desc><rect width="75.118" height="10.158" x="0" y="692.359" class="st9"/><text x="17.55" y="698.94" class="st12">Pod (DS) - Privileged</text></g><g id="shape99-84" transform="translate(403.505,-455.804)"><title>Sheet.99</title><desc>Node Exporter Container</desc><rect width="55.276" height="10.158" x="0" y="692.359" class="st9"/><text x="7.33" y="698.64" class="st13">Node Exporter Container</text></g><g id="shape139-87" transform="translate(588.465,-425.628)"><title>Sheet.139</title><rect width="45.354" height="10.158" x="0" y="692.359" class="st9"/></g><g id="shape148-89" transform="translate(407.048,-441.985)"><title>Rectangle.148</title><rect width="7.469" height="3.05" x="0" y="699.466" class="st7"/></g><g id="shape156-91" transform="translate(402.987,-441.385)"><title>Sheet.156</title><desc>:9100</desc><rect width="15.591" height="4.252" x="0" y="698.265" class="st9"/><text x="5.5" y="700.99" class="st14">:9100</text></g><g id="shape159-94" transform="translate(242.913,-327)"><title>Rectangle.159</title><rect width="68.787" height="80.787" x="0" y="621.729" class="st7"/></g><g id="shape160-96" transform="translate(239.071,-406.961)"><title>Sheet.160</title><desc>Pod (Deployment)</desc><rect width="75.118" height="10.158" x="0" y="692.359" class="st9"/><text x="19.61" y="698.94" class="st12">Pod (Deployment)</text></g><g id="shape161-99" transform="translate(250.724,-395.774)"><title>Sheet.161</title><desc>Prometheus Container</desc><rect width="55.276" height="10.158" x="0" y="692.359" class="st9"/><text x="9.26" y="698.64" class="st13">Prometheus Container</text></g><g id="shape166-102" transform="translate(249.399,-334.559)"><title>Rectangle.166</title><rect width="58.711" height="14.519" x="0" y="687.998" class="st7"/></g><g id="shape167-104" transform="translate(249.399,-336.74)"><title>Sheet.167</title><desc>Dashboard</desc><rect width="55.276" height="10.158" x="0" y="692.359" class="st9"/><text x="18.8" y="698.64" class="st13">Dashboard</text></g><g id="shape175-107" transform="translate(301.541,-323.916)"><title>Rectangle.175</title><rect width="7.469" height="3.05" x="0" y="699.466" class="st7"/></g><g id="shape176-109" transform="translate(297.48,-323.315)"><title>Sheet.176</title><desc>:80</desc><rect width="15.591" height="4.252" x="0" y="698.265" class="st9"/><text x="6.51" y="700.99" class="st14">:80</text></g><g id="shape178-112" transform="translate(294.612,-261.388)"><title>Sheet.178</title><desc>N :30000</desc><rect width="15.591" height="4.252" x="0" y="698.265" class="st9"/><text x="4.12" y="700.99" class="st14">N :30000</text></g><g id="shape182-115" transform="translate(257.903,-173.079)"><title>Square</title><rect width="69.449" height="69.449" x="0" y="633.068" class="st7"/></g><g id="shape186-117" transform="translate(232.391,-241.937)"><title>Sheet.186</title><desc>User</desc><rect width="75.118" height="10.158" x="0" y="692.359" class="st9"/><text x="29.1" y="700.14" class="st15">User</text></g><g id="shape187-120" transform="translate(272.43,-190.53)"><title>Rectangle.187</title><rect width="40.394" height="34.547" x="0" y="667.969" class="st7"/></g><g id="shape188-122" transform="translate(255.068,-202.724)"><title>Sheet.188</title><desc>Browser http://ctl-ip:30000 http://ctl-ip:32000</desc><rect width="75.118" height="10.158" x="0" y="692.359" class="st9"/><text x="22.38" y="692.34" class="st15">Browser<tspan x="22.34" class="st16" dy="1.575em">http://ctl</tspan><tspan class="st16">-</tspan><tspan class="st16">ip:30000</tspan><tspan x="21.88" class="st16" dy="2.325em"> </tspan><tspan class="st16">http://ctl</tspan><tspan class="st16">-</tspan><tspan class="st16">ip:32000</tspan></text></g><g id="shape189-132" transform="translate(304.604,-261.989)"><title>Dynamic connector.189</title><path d="M-2.2 702.52 L-11.98 739.43" class="st17"/></g><g id="shape190-135" transform="translate(269.514,-313.039)"><title>Snip Diagonal Corner Rectangle.190</title><path d="M3.23 702.52 L32.31 702.52 L32.31 692.52 L29.08 689.29 L0 689.29 L0 699.29 L3.23 702.52 Z" class="st7"/></g><g id="shape191-137" transform="translate(264.471,-314.575)"><title>Sheet.191</title><desc>Prometheus Server Service</desc><rect width="43.088" height="10.158" x="0" y="692.359" class="st9"/><text x="5.96" y="696.24" class="st13">Prometheus Server<tspan x="15.73" class="st11" dy="1.2em">Service</tspan></text></g><g id="shape192-141" transform="translate(270.79,-309.402)"><title>Sheet.192</title><desc>:80</desc><rect width="15.591" height="4.252" x="0" y="698.265" class="st9"/><text x="6.51" y="700.99" class="st14">:80</text></g><g id="shape193-144" transform="translate(235.509,-312.992)"><title>Snip Diagonal Corner Rectangle.193</title><path d="M3.23 702.52 L32.31 702.52 L32.31 692.52 L29.08 689.29 L0 689.29 L0 699.29 L3.23 702.52 Z" class="st7"/></g><g id="shape194-146" transform="translate(227.005,-315.142)"><title>Sheet.194</title><desc>Prometheus Service</desc><rect width="45.354" height="10.158" x="0" y="692.359" class="st9"/><text x="12.75" y="696.24" class="st13">Prometheus <tspan x="16.86" class="st11" dy="1.2em">Service</tspan></text></g><g id="shape195-150" transform="translate(236.206,-309.232)"><title>Sheet.195</title><desc>:9099</desc><rect width="15.591" height="4.252" x="0" y="698.265" class="st9"/><text x="5.5" y="700.99" class="st14">:9099</text></g><g id="shape205-153" transform="translate(249.399,-354.496)"><title>Rectangle.205</title><rect width="58.711" height="38.268" x="0" y="664.249" class="st7"/></g><g id="shape207-155" transform="translate(251.383,-384.588)"><title>Sheet.207</title><desc>Prometheus Jobs/Config Map</desc><rect width="60.317" height="10.158" x="0" y="692.359" class="st9"/><text x="12.14" y="698.34" class="st18">Prometheus Jobs/Config Map</text></g><g id="shape282-158" transform="translate(290.501,-379.417)"><title>Rectangle.282</title><rect width="8.504" height="2.722" x="0" y="699.794" class="st3"/></g><g id="shape690-160" transform="translate(289.084,-375.278)"><title>Rectangle.690</title><rect width="8.504" height="2.722" x="0" y="699.794" class="st3"/></g><g id="shape692-162" transform="translate(289.084,-372.469)"><title>Rectangle.692</title><rect width="8.504" height="2.722" x="0" y="699.794" class="st3"/></g><g id="shape693-164" transform="translate(292.526,-368.191)"><title>Rectangle.693</title><rect width="8.504" height="2.722" x="0" y="699.794" class="st3"/></g><g id="shape694-166" transform="translate(297.588,-365.244)"><title>Rectangle.694</title><rect width="8.504" height="2.722" x="0" y="699.794" class="st3"/></g><g id="shape695-168" transform="translate(297.588,-360.992)"><title>Rectangle.695</title><rect width="8.504" height="2.722" x="0" y="699.794" class="st3"/></g><g id="shape209-170" transform="translate(249.399,-366.425)"><title>Sheet.209</title><desc>Scrape cfg: K8s-kubelet-metrics :443 K8s-cadvisor Pod_ip:9105...</desc><rect width="62.301" height="7.205" x="0" y="695.312" class="st9"/><text x="24.51" y="685.41" class="st19">Scrape cfg:<tspan x="15.95" class="st11" dy="1.2em">K8s</tspan><tspan class="st11">-</tspan><tspan class="st11">kubelet</tspan><tspan class="st11">-</tspan><tspan class="st11">metrics :443</tspan><tspan x="15.49" class="st11" dy="1.2em">K8s</tspan>-cadvisor <tspan class="st11">Pod_ip</tspan>:<tspan class="st11">9105</tspan><tspan x="15.01" class="st11" dy="1.2em">K8s</tspan>-collectd<tspan class="st11"> </tspan>node<tspan class="st11">_ip</tspan>:910<tspan class="st11">3</tspan><tspan x="11.8" class="st11" dy="1.2em">k8s</tspan>-node-exporter <tspan class="st11">Pod_ip</tspan>:9100<tspan x="6.98" class="st11" dy="1.2em">K8s</tspan><tspan class="st11">-</tspan><tspan class="st11">otel</tspan><tspan class="st11">-</tspan><tspan class="st11">collector</tspan><tspan class="st11">-</tspan><tspan class="st11">own: service_ip:9105</tspan><tspan x="7.34" class="st11" dy="1.2em">K8s</tspan><tspan class="st11">-</tspan><tspan class="st11">otel</tspan><tspan class="st11">-</tspan><tspan class="st11">collector</tspan><tspan class="st11">-</tspan><tspan class="st11">app: service</tspan>_ip<tspan class="st11">:9107</tspan><tspan x="16.01" class="st11" dy="1.2em">K8s</tspan><tspan class="st11">-</tspan>pcm<tspan class="st11">: </tspan>node_ip<tspan class="st11">:</tspan>32100</text></g><g id="shape301-206" transform="translate(177.115,-381.779)"><title>Rectangle.301</title><rect width="48.189" height="38.268" x="0" y="664.249" class="st7"/></g><g id="shape302-208" transform="translate(185.052,-367.955)"><title>Snip Diagonal Corner Rectangle.302</title><path d="M3.23 702.52 L32.31 702.52 L32.31 692.52 L29.08 689.29 L0 689.29 L0 699.29 L3.23 702.52 Z" class="st7"/></g><g id="shape303-210" transform="translate(179.95,-369.491)"><title>Sheet.303</title><desc>Prometheus Adapter Service</desc><rect width="45.354" height="10.158" x="0" y="692.359" class="st9"/><text x="12.75" y="696.24" class="st13">Prometheus <tspan x="9.83" class="st11" dy="1.2em">Adapter Service</tspan></text></g><g id="shape304-214" transform="translate(163.651,-418.157)"><title>Sheet.304</title><desc>Pod (Deployment)</desc><rect width="75.118" height="10.158" x="0" y="692.359" class="st9"/><text x="19.61" y="698.94" class="st12">Pod (Deployment)</text></g><g id="shape305-217" transform="translate(173.572,-406.213)"><title>Sheet.305</title><desc>Prometheus Adapter (Custom Metric API server) Container NE/Co...</desc><rect width="55.276" height="10.158" x="0" y="692.359" class="st9"/><text x="10.68" y="691.44" class="st13">Prometheus Adapter<tspan x="5.7" class="st11" dy="1.2em">(Custom Metric API server) </tspan><tspan x="19.64" class="st11" dy="1.2em">Container</tspan><tspan x="11.32" class="st11" dy="1.2em">NE/CollectD metrics</tspan></text></g><g id="shape306-223" transform="translate(167.194,-381.779)"><title>Sheet.306</title><desc>prometheus-url=http://prom-service.monitoring.svc:9090/</desc><rect width="68.031" height="10.158" x="0" y="692.359" class="st9"/><text x="9.72" y="696.24" class="st13">prometheus-url=http://prom-<tspan x="10.4" class="st11" dy="1.2em">service.monitoring.svc:9090/</tspan></text></g><g id="shape309-227" transform="translate(225.304,-384.617)"><title>Dynamic connector.309</title><path d="M0 702.52 L7.09 702.52 L7.09 780 L15.79 780 L15.79 776.7 L18.7 776.7" class="st20"/></g><g id="shape310-230" transform="translate(217.023,-378.466)"><title>Rectangle.310</title><rect width="7.469" height="3.05" x="0" y="699.466" class="st7"/></g><g id="shape311-232" transform="translate(213.257,-378)"><title>Sheet.311</title><desc>:6443</desc><rect width="15.591" height="4.252" x="0" y="698.265" class="st9"/><text x="5.5" y="700.99" class="st14">:6443</text></g><g id="shape312-235" transform="translate(187.745,-363.585)"><title>Sheet.312</title><desc>t:6443</desc><rect width="15.591" height="4.252" x="0" y="698.265" class="st9"/><text x="5.17" y="700.99" class="st14">t:6443</text></g><g id="shape314-238" transform="translate(191.806,-361.952)"><title>Rectangle.314</title><rect width="7.469" height="3.05" x="0" y="699.466" class="st7"/></g><g id="shape315-240" transform="translate(187.745,-360.643)"><title>Sheet.315</title><desc>:443</desc><rect width="15.591" height="4.252" x="0" y="698.265" class="st9"/><text x="6.01" y="700.99" class="st14">:443</text></g><g id="shape316-243" transform="translate(174.18,-370.691)"><title>Square.316</title><rect width="10.158" height="10.158" x="0" y="692.359" class="st7"/></g><g id="shape317-245" transform="translate(156.582,-370.691)"><title>Sheet.317</title><desc>API Service</desc><rect width="45.354" height="10.158" x="0" y="692.359" class="st9"/><text x="20.32" y="696.39" class="st21">API <tspan x="17.59" class="st11" dy="1.2em">Service</tspan></text></g><g id="shape336-249" transform="translate(119.005,-418.335)"><title>Rectangle.336</title><desc>K8S API</desc><rect width="35.433" height="28.138" x="0" y="674.379" class="st7"/><text x="10.29" y="685.45" class="st22">K8S <tspan x="10.98" class="st11" dy="1.2em">API</tspan></text></g><g id="shape337-253" transform="translate(154.438,-432.404)"><title>Dynamic connector.337</title><path d="M0 702.52 L5.31 702.52 L5.31 759.15 L19.74 759.15" class="st20"/></g><g id="shape338-256" transform="translate(69.3986,-418.335)"><title>Rectangle.338</title><desc>K8S Scheduler</desc><rect width="35.433" height="28.138" x="0" y="674.379" class="st7"/><text x="12.89" y="686.5" class="st23">K8S <tspan x="4.61" class="st11" dy="1.2em">Scheduler</tspan></text></g><g id="shape342-260" transform="translate(64.438,-381.069)"><title>Rectangle.342</title><rect width="45.354" height="28.485" x="0" y="674.031" class="st7"/></g><g id="shape348-262" transform="translate(64.438,-388.052)"><title>Sheet.348</title><desc>Scheduler-Extender Configmap: Policy: https://tas-service.def...</desc><rect width="45.354" height="14.519" x="0" y="687.998" class="st9"/><text x="6.7" y="684.46" class="st13">Scheduler-Extender<tspan x="13.35" class="st11" dy="1.2em">Configmap:</tspan><tspan x="17.39" class="st11" dy="1.2em">Policy:</tspan><tspan x="13.35" class="st11" dy="1.2em">https://tas</tspan>-<tspan x="4.02" class="st11" dy="1.2em">service.default.svc.clus</tspan><tspan x="11.44" class="st11" dy="1.2em">ter.local:9001</tspan></text></g><g id="shape350-270" transform="translate(80.0285,-421.031)"><title>Dynamic connector.350</title><path d="M7.09 705.21 L7.09 713.99" class="st20"/></g><g id="shape359-273" transform="translate(99.8711,-347.622)"><title>Rectangle.359</title><rect width="48.189" height="19.37" x="0" y="683.147" class="st7"/></g><g id="shape360-275" transform="translate(99.7293,-333.449)"><title>Snip Diagonal Corner Rectangle.360</title><path d="M3.23 702.52 L32.31 702.52 L32.31 692.52 L29.08 689.29 L0 689.29 L0 699.29 L3.23 702.52 Z" class="st7"/></g><g id="shape361-277" transform="translate(94.6866,-334.984)"><title>Sheet.361</title><desc>TAS Service</desc><rect width="45.354" height="10.158" x="0" y="692.359" class="st9"/><text x="13.36" y="698.64" class="st13">TAS Service</text></g><g id="shape362-280" transform="translate(82.8632,-363.827)"><title>Sheet.362</title><desc>Pod (Deployment)</desc><rect width="75.118" height="10.158" x="0" y="692.359" class="st9"/><text x="19.61" y="698.94" class="st12">Pod (Deployment)</text></g><g id="shape363-283" transform="translate(96.3278,-357.661)"><title>Sheet.363</title><desc>Telemetry Aware Scheduler</desc><rect width="55.276" height="10.158" x="0" y="692.359" class="st9"/><text x="5.14" y="698.64" class="st13">Telemetry Aware Scheduler</text></g><g id="shape365-286" transform="translate(101.005,-329.811)"><title>Sheet.365</title><desc>:9001</desc><rect width="15.591" height="4.252" x="0" y="698.265" class="st9"/><text x="5.5" y="700.99" class="st14">:9001</text></g><g id="shape367-289" transform="translate(87.1152,-381.069)"><title>Dynamic connector.367</title><path d="M0 702.52 L0 756.61 L22.51 756.61 L22.51 753.36" class="st20"/></g><g id="shape379-292" transform="translate(389.005,-593.433)"><title>Rectangle.379</title><path d="M0 702.52 L244.49 702.52 L244.49 617.48 L0 617.48 L0 702.52 Z" class="st24"/></g><g id="shape392-294" transform="translate(389.005,-654.065)"><title>Sheet.392</title><desc>OpenNESS Experience Kit</desc><rect width="103.465" height="30.077" x="0" y="672.44" class="st9"/><text x="15.8" y="691.08" class="st25">OpenNESS Experience Kit</text></g><g id="shape394-297" transform="translate(389.005,-635.953)"><title>Dynamic connector.394</title><path d="M0 702.52 L-19.13 702.52 L-19.13 877.95 L-26.28 877.95" class="st26"/></g><g id="shape395-300" transform="translate(511.249,-593.433)"><title>Dynamic connector.395</title><path d="M0 702.52 L0 706.48 L156.61 706.48 L156.61 853.14 L151.3 853.14" class="st26"/></g><g id="shape396-303" transform="translate(574.274,-591.585)"><title>Dynamic connector.396</title><path d="M0 702.52 L146.34 702.52 L146.34 1146.88 L86.55 1146.88" class="st26"/></g><g id="shape397-306" transform="translate(398.218,-602.094)"><title>Sheet.397</title><desc>Master: RBAC, Services, ConfigMap, DaemonSets, Deployments He...</desc><rect width="68.031" height="53.545" x="0" y="648.972" class="st9"/><text x="5.15" y="659.54" class="st10">Master: RBAC, Services, <tspan x="19.92" class="st11" dy="1.2em">ConfigMap, </tspan><tspan x="17.89" class="st11" dy="1.2em">DaemonSets, </tspan><tspan x="17.83" class="st11" dy="1.2em">Deployments</tspan><tspan x="27.57" class="st11" dy="1.2em">Helm </tspan><tspan x="12.24" class="st11" dy="1.2em">Telemetry Flavors</tspan></text></g><g id="shape398-314" transform="translate(469.084,-630.44)"><title>Sheet.398</title><desc>Ansible Deployment:</desc><rect width="68.031" height="53.545" x="0" y="648.972" class="st9"/><text x="8.59" y="673.94" class="st10">Ansible Deployment:</text></g><g id="shape399-317" transform="translate(531.446,-602.094)"><title>Sheet.399</title><desc>Node: Build/Configure Images, configure platform. Create plat...</desc><rect width="93.543" height="53.545" x="0" y="648.972" class="st9"/><text x="9.4" y="663.14" class="st10">Node: Build/Configure Images, <tspan x="23.13" class="st11" dy="1.2em">configure platform. </tspan><tspan x="7.9" class="st11" dy="1.2em">Create platform based on flavor</tspan><tspan x="4.67" class="st11" dy="1.2em">C</tspan>onfigure telemetry <tspan class="st11">f</tspan>lavors, based <tspan x="24.59" class="st11" dy="1.2em">on platform flavor</tspan></text></g><g id="shape403-325" transform="translate(102.281,-348.52)"><title>Rectangle.403</title><rect width="15.591" height="11.508" x="0" y="691.009" class="st7"/></g><g id="shape404-327" transform="translate(125.808,-348.52)"><title>Rectangle.404</title><rect width="15.591" height="11.508" x="0" y="691.009" class="st7"/></g><g id="shape407-329" transform="translate(122.548,-349.87)"><title>Sheet.407</title><desc>TAS Controller container</desc><rect width="24.095" height="10.158" x="0" y="692.359" class="st9"/><text x="9.76" y="694.74" class="st18">TAS <tspan x="5.89" class="st11" dy="1.2em">Controller </tspan><tspan x="6.21" class="st11" dy="1.2em">container</tspan></text></g><g id="shape408-334" transform="translate(99.8711,-349.195)"><title>Sheet.408</title><desc>TAS Extender container</desc><rect width="21.26" height="10.158" x="0" y="692.359" class="st9"/><text x="8.34" y="694.74" class="st18">TAS <tspan x="5.15" class="st11" dy="1.2em">Extender </tspan><tspan x="4.79" class="st11" dy="1.2em">container</tspan></text></g><g id="shape410-339" transform="translate(132.942,-336.74)"><title>Square.410</title><rect width="10.158" height="10.158" x="0" y="692.359" class="st7"/></g><g id="shape412-341" transform="translate(115.344,-336.74)"><title>Sheet.412</title><desc>CRD TAS</desc><rect width="45.354" height="10.158" x="0" y="692.359" class="st9"/><text x="19.72" y="696.39" class="st21">CRD <tspan x="20.01" class="st11" dy="1.2em">TAS</tspan></text></g><g id="shape415-345" transform="translate(64.065,-359.811)"><title>Rectangle.415</title><rect width="20.215" height="19.37" x="0" y="683.147" class="st7"/></g><g id="shape417-347" transform="translate(62.1255,-364.417)"><title>Sheet.417</title><desc>De-scheduler policy</desc><rect width="24.095" height="10.158" x="0" y="692.359" class="st9"/><text x="9.21" y="693.84" class="st13">De-<tspan x="4.12" class="st11" dy="1.2em">scheduler </tspan><tspan x="7.27" class="st11" dy="1.2em">policy</tspan></text></g><g id="shape418-352" transform="translate(134.595,-313.193)"><title>Parallelogram</title><path d="M0 702.52 L19.13 702.52 L21.26 683.15 L2.13 683.15 L0 702.52 Z" class="st7"/></g><g id="shape419-354" transform="translate(132.094,-325.323)"><title>Sheet.419</title><desc>TAS Policy</desc><rect width="28.346" height="10.158" x="0" y="692.359" class="st9"/><text x="7.98" y="698.34" class="st18">TAS Policy</text></g><g id="shape420-357" transform="translate(131.052,-314.882)"><title>Sheet.420</title><desc>Scheduleonmetric: metric_name; rule Dontshedule: metric_name:...</desc><rect width="28.346" height="11.339" x="0" y="691.178" class="st9"/><text x="6.54" y="691.45" class="st14">Scheduleonmetric:<tspan x="6.65" class="st11" dy="1.2em">metric_name; rule</tspan><tspan x="8.71" class="st11" dy="1.2em">Dontshedule:</tspan><tspan x="6.65" class="st11" dy="1.2em">metric_name: rule</tspan><tspan x="9.18" class="st11" dy="1.2em">Deschedule:</tspan><tspan x="6.65" class="st11" dy="1.2em">metric_name; rule</tspan></text></g><g id="shape424-365" transform="translate(174.989,-276.425)"><title>Parallelogram.424</title><path d="M0 702.52 L19.13 702.52 L21.26 683.15 L2.13 683.15 L0 702.52 Z" class="st7"/></g><g id="shape425-367" transform="translate(171.446,-287.882)"><title>Sheet.425</title><desc>Pod-Spec</desc><rect width="28.346" height="10.158" x="0" y="692.359" class="st9"/><text x="8.5" y="698.34" class="st18">Pod-Spec</text></g><g id="shape431-370" transform="translate(171.446,-278.18)"><title>Sheet.431</title><desc>YAML Label: TAS policy Resources: TAS policy Affinity: TAS po...</desc><rect width="28.346" height="11.339" x="0" y="691.178" class="st9"/><text x="11.83" y="692.65" class="st14">YAML<tspan x="7.39" class="st11" dy="1.2em">Label: TAS policy</tspan><tspan x="5.4" class="st11" dy="1.2em">Resources: TAS policy</tspan><tspan x="4.87" class="st11" dy="1.2em">Affinity: TAS policy (for </tspan><tspan x="9.23" class="st11" dy="1.2em">deschedule)</tspan></text></g><g id="shape433-377" transform="translate(292.627,-242.528)"><title>Dynamic connector.433</title><path d="M0 702.52 L0 658.93 L-97.44 658.93" class="st17"/></g><g id="shape687-380" transform="translate(186.682,-295.795)"><title>Dynamic connector.687</title><path d="M0 702.52 L0 646.56 L-25.16 646.56 L-25.16 627.62 L-49.96 627.62 L-49.96 579.98" class="st27"/></g><g id="shape688-383" transform="translate(104.832,-425.317)"><title>Dynamic connector.688</title><path d="M0 695.43 L14.17 695.43" class="st20"/></g><g id="shape731-386" transform="translate(428.308,-522.213)"><title>Rectangle.731</title><rect width="48.189" height="19.37" x="0" y="683.147" class="st7"/></g><g id="shape753-388" transform="translate(450.702,-514.865)"><title>Rectangle.753</title><rect width="3.402" height="10.916" x="0" y="691.601" class="st28"/></g><g id="shape732-390" transform="translate(401.379,-539.339)"><title>Sheet.732</title><desc>Pod (DS) - Privileged</desc><rect width="75.118" height="10.158" x="0" y="692.359" class="st9"/><text x="16.98" y="698.94" class="st29">Pod (DS) - Privileged</text></g><g id="shape733-393" transform="translate(433.977,-531.425)"><title>Sheet.733</title><desc>Collectd Container</desc><rect width="45.354" height="10.158" x="0" y="692.359" class="st9"/><text x="7.62" y="698.64" class="st30">Collectd<tspan class="st11"> </tspan><tspan class="st11">Container</tspan></text></g><g id="shape734-398" transform="translate(465.158,-514.865)"><title>Rectangle.734</title><path d="M0 702.52 L3.4 702.52 L3.4 691.6 L0 691.6 L0 702.52 Z" class="st31"/></g><g id="shape735-400" transform="translate(459.773,-514.865)"><title>Rectangle.735</title><rect width="3.402" height="10.916" x="0" y="691.601" class="st28"/></g><g id="shape736-402" transform="translate(454.387,-514.865)"><title>Rectangle.736</title><rect width="3.402" height="10.916" x="0" y="691.601" class="st28"/></g><g id="shape737-404" transform="translate(469.694,-514.913)"><title>Rectangle.737</title><rect width="2.268" height="10.916" x="0" y="691.601" class="st28"/></g><g id="shape738-406" transform="translate(450.56,-525.283)"><title>Rectangle.738</title><rect width="23.528" height="4.252" x="0" y="698.265" class="st28"/></g><g id="shape739-408" transform="translate(441.064,-522.331)"><title>Sheet.739</title><desc>CollectD plugins</desc><rect width="45.354" height="10.158" x="0" y="692.359" class="st9"/><text x="16.16" y="698.04" class="st32">CollectD plugins</text></g><g id="shape740-411" transform="translate(466.194,-513.919)"><title>Sheet.740</title><desc>Other</desc><rect width="7.469" height="10.158" x="0" y="692.359" class="st9"/><text x="4" y="695.34" class="st33">O<tspan x="4" class="st11" dy="1.2em">t</tspan><tspan x="4" class="st11" dy="1.2em">h</tspan><tspan x="4" class="st11" dy="1.2em">e</tspan><tspan x="4" class="st11" dy="1.2em">r</tspan></text></g><g id="shape741-418" transform="translate(451.269,-514.865)"><title>Sheet.741</title><desc>OVS</desc><rect width="6.296" height="10.158" x="0" y="692.359" class="st9"/><text x="4" y="695.64" class="st32">O<tspan x="4" class="st11" dy="1.2em">V</tspan><tspan x="4" class="st11" dy="1.2em">S</tspan></text></g><g id="shape742-423" transform="translate(456.654,-514.865)"><title>Sheet.742</title><desc>RDT</desc><rect width="6.296" height="10.158" x="0" y="692.359" class="st9"/><text x="4" y="695.64" class="st32">R<tspan x="4" class="st11" dy="1.2em">D</tspan><tspan x="4" class="st11" dy="1.2em">T</tspan></text></g><g id="shape743-428" transform="translate(462.324,-514.865)"><title>Sheet.743</title><desc>OPAE</desc><rect width="7.469" height="10.158" x="0" y="692.359" class="st9"/><text x="4" y="694.44" class="st32">O<tspan x="4" class="st11" dy="1.2em">P</tspan><tspan x="4" class="st11" dy="1.2em">A</tspan><tspan x="4" class="st11" dy="1.2em">E</tspan></text></g><g id="shape750-434" transform="translate(405.631,-492.986)"><title>Rectangle.750</title><rect width="28.346" height="22.913" x="0" y="679.603" class="st7"/></g><g id="shape752-436" transform="translate(397.127,-505.742)"><title>Sheet.752</title><desc>Nginx Container</desc><rect width="45.354" height="10.158" x="0" y="692.359" class="st9"/><text x="9.61" y="698.64" class="st30">Nginx Container</text></g><g id="shape755-439" transform="translate(447.807,-514.087)"><title>Sheet.755</title><desc>HttpWr I T e</desc><rect width="6.296" height="10.158" x="0" y="692.359" class="st9"/><text x="4" y="692.94" class="st33">H<tspan x="4" class="st11" dy="1.2em">t</tspan><tspan x="4" class="st11" dy="1.2em">t</tspan><tspan x="4" class="st11" dy="1.2em">p</tspan><tspan x="4" class="st11" dy="1.2em">W</tspan><tspan x="4" class="st11" dy="1.2em">r</tspan><tspan x="4" class="st11" dy="1.2em">I</tspan><tspan x="4" class="st11" dy="1.2em">T</tspan><tspan x="4" class="st11" dy="1.2em">e</tspan></text></g><g id="shape757-450" transform="translate(413.203,-497.905)"><title>Rectangle.757</title><rect width="13.201" height="7.406" x="0" y="695.111" class="st7"/></g><g id="shape756-452" transform="translate(410.932,-497.905)"><title>Sheet.756</title><desc>R.Proxy</desc><rect width="17.745" height="7.391" x="0" y="695.126" class="st9"/><text x="4.26" y="699.72" class="st34">R.Proxy</text></g><g id="shape758-455" transform="translate(440.164,-519.058)"><title>Rectangle.758</title><rect width="7.469" height="3.05" x="0" y="699.466" class="st7"/></g><g id="shape759-457" transform="translate(436.103,-518.457)"><title>Sheet.759</title><desc>:9104</desc><rect width="15.591" height="4.252" x="0" y="698.265" class="st9"/><text x="5.5" y="700.99" class="st14">:910<tspan class="st11">4</tspan></text></g><g id="shape769-461" transform="translate(242.312,-440.362)"><title>Rectangle.769</title><rect width="68.787" height="48.898" x="0" y="653.619" class="st7"/></g><g id="shape770-463" transform="translate(235.981,-486.719)"><title>Sheet.770</title><desc>Pod (Deployment)</desc><rect width="75.118" height="10.158" x="0" y="692.359" class="st9"/><text x="19.61" y="698.94" class="st12">Pod (Deployment)</text></g><g id="shape775-466" transform="translate(249.068,-479.102)"><title>Sheet.775</title><desc>Grafana Container</desc><rect width="55.276" height="10.158" x="0" y="692.359" class="st9"/><text x="12.69" y="698.64" class="st13">Grafana<tspan class="st11"> </tspan><tspan class="st11">Container</tspan></text></g><g id="shape777-471" transform="translate(247.981,-447.276)"><title>Rectangle.777</title><rect width="58.711" height="14.519" x="0" y="687.998" class="st7"/></g><g id="shape778-473" transform="translate(247.981,-449.457)"><title>Sheet.778</title><desc>Dashboard</desc><rect width="55.276" height="10.158" x="0" y="692.359" class="st9"/><text x="18.8" y="698.64" class="st13">Dashboard</text></g><g id="shape780-476" transform="translate(293.068,-438.128)"><title>Rectangle.780</title><rect width="7.469" height="3.05" x="0" y="699.466" class="st7"/></g><g id="shape781-478" transform="translate(289.084,-437.528)"><title>Sheet.781</title><desc>n:30000</desc><rect width="15.591" height="4.252" x="0" y="698.265" class="st9"/><text x="4.47" y="700.99" class="st14">n:30000</text></g><g id="shape783-481" transform="translate(317.812,-261.989)"><title>Rectangle.783</title><rect width="7.469" height="3.05" x="0" y="699.466" class="st7"/></g><g id="shape784-483" transform="translate(313.751,-261.388)"><title>Sheet.784</title><desc>N :32000</desc><rect width="15.591" height="4.252" x="0" y="698.265" class="st9"/><text x="4.12" y="700.99" class="st14">N :32000</text></g><g id="shape785-486" transform="translate(292.627,-225.077)"><title>Dynamic connector.785</title><path d="M0 702.52 L0 697.2 L28.92 697.2 L28.92 665.6" class="st17"/></g><g id="shape786-489" transform="translate(321.546,-265.039)"><title>Dynamic connector.786</title><path d="M0 702.52 L0 540.06 L-24.74 540.06 L-24.74 529.43" class="st20"/></g><g id="shape787-492" transform="translate(257.521,-437.312)"><title>Rectangle.787</title><rect width="7.469" height="3.05" x="0" y="699.466" class="st7"/></g><g id="shape788-494" transform="translate(248.499,-407.764)"><title>Rectangle.788</title><rect width="7.469" height="3.05" x="0" y="699.466" class="st7"/></g><g id="shape789-496" transform="translate(249.657,-410.814)"><title>Dynamic connector.789</title><path d="M2.58 702.52 L2.58 699.86 L11.6 699.86 L11.6 676.02" class="st20"/></g><g id="shape791-499" transform="translate(400.288,-475.795)"><title>Lock</title><path d="M5.49 698.18 C5.49 698.5 5.29 698.78 5.01 698.9 L5.22 700.57 L4.14 700.57 L4.35 698.9 C4.07 698.78 3.87 698.5 3.87 698.18 C3.87 697.74 4.23 697.38 4.68 697.38 C5.13 697.38 5.49 697.74 5.49 698.18 ZM8.64 701.45 L8.64 696.49 C8.64 696.3 8.48 696.14 8.28 696.14 L1.08 696.14 C0.88 696.14 0.72 696.3 0.72 696.49 L0.72 701.45 C0.72 701.65 0.88 701.81 1.08 701.81 L8.28 701.81 C8.48 701.81 8.64 701.65 8.64 701.45 ZM5.76 694.13 C5.73 693.68 5.25 693.3 4.68 693.3 C4.1 693.3 3.63 693.7 3.61 694.2 L3.6 694.2 L3.6 695.43 L5.76 695.43 L5.76 694.13 ZM2.16 694.1 C2.16 694.1 2.16 694.73 2.16 695.43 L2.88 695.43 C2.88 694.73 2.88 694.1 2.88 694.1 L2.89 694.17 C2.93 693.29 3.72 692.6 4.68 692.6 C5.64 692.6 6.43 693.27 6.48 694.1 C6.48 694.1 6.48 694.73 6.48 695.43 L7.2 695.43 C7.2 694.73 7.2 694.1 7.2 694.1 C7.13 692.87 6.03 691.89 4.68 691.89 C3.33 691.89 2.23 692.87 2.17 694.13 L2.16 694.1 ZM8.28 695.43 C8.88 695.43 9.36 695.91 9.36 696.49 L9.36 701.45 C9.36 702.04 8.88 702.52 8.28 702.52 L1.08 702.52 C0.48 702.52 0 702.04 0 701.45 L0 696.49 C0 695.91 0.48 695.43 1.08 695.43 L1.44 695.43 L1.44 694.1 L1.45 694.1 C1.53 692.47 2.94 691.18 4.68 691.18 C6.42 691.18 7.83 692.47 7.91 694.1 L7.92 694.1 L7.92 695.43 L8.28 695.43 Z" class="st35"/></g><g id="shape793-501" transform="translate(248.971,-420.971)"><title>Lock.793</title><path d="M5.49 698.18 C5.49 698.5 5.29 698.78 5.01 698.9 L5.22 700.57 L4.14 700.57 L4.35 698.9 C4.07 698.78 3.87 698.5 3.87 698.18 C3.87 697.74 4.23 697.38 4.68 697.38 C5.13 697.38 5.49 697.74 5.49 698.18 ZM8.64 701.45 L8.64 696.49 C8.64 696.3 8.48 696.14 8.28 696.14 L1.08 696.14 C0.88 696.14 0.72 696.3 0.72 696.49 L0.72 701.45 C0.72 701.65 0.88 701.81 1.08 701.81 L8.28 701.81 C8.48 701.81 8.64 701.65 8.64 701.45 ZM5.76 694.13 C5.73 693.68 5.25 693.3 4.68 693.3 C4.1 693.3 3.63 693.7 3.61 694.2 L3.6 694.2 L3.6 695.43 L5.76 695.43 L5.76 694.13 ZM2.16 694.1 C2.16 694.1 2.16 694.73 2.16 695.43 L2.88 695.43 C2.88 694.73 2.88 694.1 2.88 694.1 L2.89 694.17 C2.93 693.29 3.72 692.6 4.68 692.6 C5.64 692.6 6.43 693.27 6.48 694.1 C6.48 694.1 6.48 694.73 6.48 695.43 L7.2 695.43 C7.2 694.73 7.2 694.1 7.2 694.1 C7.13 692.87 6.03 691.89 4.68 691.89 C3.33 691.89 2.23 692.87 2.17 694.13 L2.16 694.1 ZM8.28 695.43 C8.88 695.43 9.36 695.91 9.36 696.49 L9.36 701.45 C9.36 702.04 8.88 702.52 8.28 702.52 L1.08 702.52 C0.48 702.52 0 702.04 0 701.45 L0 696.49 C0 695.91 0.48 695.43 1.08 695.43 L1.44 695.43 L1.44 694.1 L1.45 694.1 C1.53 692.47 2.94 691.18 4.68 691.18 C6.42 691.18 7.83 692.47 7.91 694.1 L7.92 694.1 L7.92 695.43 L8.28 695.43 Z" class="st36"/></g><g id="shape794-503" transform="translate(220.624,-344.924)"><title>Lock.794</title><path d="M5.49 698.18 C5.49 698.5 5.29 698.78 5.01 698.9 L5.22 700.57 L4.14 700.57 L4.35 698.9 C4.07 698.78 3.87 698.5 3.87 698.18 C3.87 697.74 4.23 697.38 4.68 697.38 C5.13 697.38 5.49 697.74 5.49 698.18 ZM8.64 701.45 L8.64 696.49 C8.64 696.3 8.48 696.14 8.28 696.14 L1.08 696.14 C0.88 696.14 0.72 696.3 0.72 696.49 L0.72 701.45 C0.72 701.65 0.88 701.81 1.08 701.81 L8.28 701.81 C8.48 701.81 8.64 701.65 8.64 701.45 ZM5.76 694.13 C5.73 693.68 5.25 693.3 4.68 693.3 C4.1 693.3 3.63 693.7 3.61 694.2 L3.6 694.2 L3.6 695.43 L5.76 695.43 L5.76 694.13 ZM2.16 694.1 C2.16 694.1 2.16 694.73 2.16 695.43 L2.88 695.43 C2.88 694.73 2.88 694.1 2.88 694.1 L2.89 694.17 C2.93 693.29 3.72 692.6 4.68 692.6 C5.64 692.6 6.43 693.27 6.48 694.1 C6.48 694.1 6.48 694.73 6.48 695.43 L7.2 695.43 C7.2 694.73 7.2 694.1 7.2 694.1 C7.13 692.87 6.03 691.89 4.68 691.89 C3.33 691.89 2.23 692.87 2.17 694.13 L2.16 694.1 ZM8.28 695.43 C8.88 695.43 9.36 695.91 9.36 696.49 L9.36 701.45 C9.36 702.04 8.88 702.52 8.28 702.52 L1.08 702.52 C0.48 702.52 0 702.04 0 701.45 L0 696.49 C0 695.91 0.48 695.43 1.08 695.43 L1.44 695.43 L1.44 694.1 L1.45 694.1 C1.53 692.47 2.94 691.18 4.68 691.18 C6.42 691.18 7.83 692.47 7.91 694.1 L7.92 694.1 L7.92 695.43 L8.28 695.43 Z" class="st36"/></g><g id="shape855-505" transform="translate(407.048,-380.973)"><title>Rectangle.855</title><rect width="78.476" height="51.864" x="0" y="650.653" class="st7"/></g><g id="shape856-507" transform="translate(435.068,-413.079)"><title>Rectangle.856</title><rect width="48.189" height="19.37" x="0" y="683.147" class="st7"/></g><g id="shape858-509" transform="translate(408.139,-430.205)"><title>Sheet.858</title><desc>Pod (DS)</desc><rect width="75.118" height="10.158" x="0" y="692.359" class="st9"/><text x="28.87" y="698.94" class="st29">Pod (DS)</text></g><g id="shape859-512" transform="translate(440.737,-422.291)"><title>Sheet.859</title><desc>cAdvisor Container</desc><rect width="45.354" height="10.158" x="0" y="692.359" class="st9"/><text x="7.27" y="698.64" class="st30">cAdvisor Container</text></g><g id="shape870-515" transform="translate(412.391,-383.853)"><title>Rectangle.870</title><rect width="28.346" height="22.913" x="0" y="679.603" class="st7"/></g><g id="shape871-517" transform="translate(403.887,-396.609)"><title>Sheet.871</title><desc>Nginx Container</desc><rect width="45.354" height="10.158" x="0" y="692.359" class="st9"/><text x="9.61" y="698.64" class="st30">Nginx Container</text></g><g id="shape873-520" transform="translate(419.963,-388.772)"><title>Rectangle.873</title><rect width="13.201" height="7.406" x="0" y="695.111" class="st7"/></g><g id="shape874-522" transform="translate(417.692,-388.772)"><title>Sheet.874</title><desc>R.Proxy</desc><rect width="17.745" height="7.391" x="0" y="695.126" class="st9"/><text x="4.26" y="699.72" class="st34">R.Proxy</text></g><g id="shape875-525" transform="translate(446.924,-409.924)"><title>Rectangle.875</title><rect width="7.469" height="3.05" x="0" y="699.466" class="st7"/></g><g id="shape876-527" transform="translate(442.863,-409.323)"><title>Sheet.876</title><desc>:9106</desc><rect width="15.591" height="4.252" x="0" y="698.265" class="st9"/><text x="5.5" y="700.99" class="st14">:910<tspan class="st11">6</tspan></text></g><g id="shape879-531" transform="translate(1111.97,310.011) rotate(90)"><title>Rectangle.879</title><rect width="7.469" height="3.05" x="0" y="699.466" class="st7"/></g><g id="shape880-533" transform="translate(1111.36,305.95) rotate(90)"><title>Sheet.880</title><desc>:9105</desc><rect width="15.591" height="4.252" x="0" y="698.265" class="st9"/><text x="5.5" y="700.99" class="st14">:910<tspan class="st11">5</tspan></text></g><g id="shape882-537" transform="translate(409.144,-383.537)"><title>Dynamic connector.882</title><path d="M3.35 697.28 L6.01 697.28 L6.01 693.58 L10.82 693.58" class="st27"/></g><g id="shape883-540" transform="translate(433.165,-392.475)"><title>Dynamic connector.883</title><path d="M0 702.52 L17.49 702.52 L17.49 685.07" class="st27"/></g><g id="shape884-543" transform="translate(426.405,-501.608)"><title>Dynamic connector</title><path d="M0 702.52 L17.49 702.52 L17.49 685.07" class="st27"/></g><g id="shape901-546" transform="translate(521.851,-474.311)"><title>Rectangle.901</title><rect width="78.476" height="51.864" x="0" y="650.653" class="st7"/></g><g id="shape902-548" transform="translate(549.871,-506.416)"><title>Rectangle.902</title><rect width="48.189" height="19.37" x="0" y="683.147" class="st7"/></g><g id="shape903-550" transform="translate(522.942,-523.542)"><title>Sheet.903</title><desc>Pod (DS) Privileged</desc><rect width="75.118" height="10.158" x="0" y="692.359" class="st9"/><text x="18.31" y="698.94" class="st29">Pod (DS) <tspan class="st11">Privileged</tspan></text></g><g id="shape904-554" transform="translate(555.54,-515.629)"><title>Sheet.904</title><desc>PCM Container</desc><rect width="45.354" height="10.158" x="0" y="692.359" class="st9"/><text x="10.41" y="698.64" class="st30">PCM Container</text></g><g id="shape905-557" transform="translate(527.194,-477.19)"><title>Rectangle.905</title><rect width="28.346" height="22.913" x="0" y="679.603" class="st7"/></g><g id="shape906-559" transform="translate(518.69,-489.946)"><title>Sheet.906</title><desc>Nginx Container</desc><rect width="45.354" height="10.158" x="0" y="692.359" class="st9"/><text x="9.61" y="698.64" class="st30">Nginx Container</text></g><g id="shape907-562" transform="translate(534.767,-482.109)"><title>Rectangle.907</title><rect width="13.201" height="7.406" x="0" y="695.111" class="st7"/></g><g id="shape908-564" transform="translate(532.495,-482.109)"><title>Sheet.908</title><desc>R.Proxy</desc><rect width="17.745" height="7.391" x="0" y="695.126" class="st9"/><text x="4.26" y="699.72" class="st34">R.Proxy</text></g><g id="shape909-567" transform="translate(561.727,-503.261)"><title>Rectangle.909</title><rect width="7.469" height="3.05" x="0" y="699.466" class="st7"/></g><g id="shape910-569" transform="translate(557.666,-502.66)"><title>Sheet.910</title><desc>:9738</desc><rect width="15.591" height="4.252" x="0" y="698.265" class="st9"/><text x="5.5" y="700.99" class="st14">:9<tspan class="st11">738</tspan></text></g><g id="shape911-573" transform="translate(538.342,-475.482)"><title>Rectangle.911</title><rect width="7.469" height="3.05" x="0" y="699.466" class="st7"/></g><g id="shape912-575" transform="translate(534.281,-474.881)"><title>Sheet.912</title><desc>9739</desc><rect width="15.591" height="4.252" x="0" y="698.265" class="st9"/><text x="5.77" y="700.99" class="st14">9739</text></g><g id="shape913-578" transform="translate(545.508,-475.085)"><title>Dynamic connector.913</title><path d="M-3.43 699.07 L-3.43 696.82 L-12.07 696.82 L-12.07 691.79 L-10.74 691.79" class="st27"/></g><g id="shape914-581" transform="translate(547.968,-485.812)"><title>Dynamic connector.914</title><path d="M0 702.52 L17.49 702.52 L17.49 685.07" class="st27"/></g><g id="shape916-584" transform="translate(1087.87,227.948) rotate(90)"><title>Rectangle.916</title><rect width="7.469" height="3.05" x="0" y="699.466" class="st7"/></g><g id="shape917-586" transform="translate(1087.27,223.887) rotate(90)"><title>Sheet.917</title><desc>N: 32100</desc><rect width="15.591" height="4.252" x="0" y="698.265" class="st9"/><text x="4.12" y="700.99" class="st14">N: 32100</text></g><g id="shape918-589" transform="translate(526.294,-459.783)"><title>Rectangle.918</title><rect width="7.469" height="3.05" x="0" y="699.466" class="st7"/></g><g id="shape919-591" transform="translate(521.525,-462.973)"><title>Snip Diagonal Corner Rectangle.919</title><path d="M2.55 702.52 L25.51 702.52 L25.51 694.62 L22.96 692.07 L0 692.07 L0 699.97 L2.55 702.52 Z" class="st7"/></g><g id="shape920-593" transform="translate(514.065,-461.723)"><title>Sheet.920</title><desc>PCM service</desc><rect width="45.354" height="10.158" x="0" y="692.359" class="st9"/><text x="12.74" y="696.24" class="st13">PCM service</text></g><g id="shape921-596" transform="translate(521.841,-458.787)"><title>Sheet.921</title><desc>:3000</desc><rect width="15.591" height="4.252" x="0" y="698.265" class="st9"/><text x="5.5" y="700.99" class="st14">:<tspan class="st11">3000</tspan></text></g><g id="shape922-600" transform="translate(532.7,-461.308)"><title>Dynamic connector.922</title><path d="M1.06 702.52 L15.67 702.52 L15.67 686.82 L13.11 686.82" class="st20"/></g><g id="shape923-603" transform="translate(526.294,-458.985)"><title>Dynamic connector.923</title><path d="M0 700.19 L-25.97 700.19 L-25.97 687.21 L-136.56 687.21 L-136.56 690.67 L-137.89 690.67" class="st37"/></g><g id="shape924-606" transform="translate(385.354,-470.835)"><title>Dynamic connector.924</title><path d="M0 702.52 L-13.12 702.52 A2.3622 2.3622 -180 1 0 -17.84 702.52 L-34.19 702.52 L-34.19 814.48 L-61.45 814.48 A2.3622 2.3622 -180 0 0 -66.17 814.48 L-79.26 814.48" class="st37"/></g><g id="shape925-609" transform="translate(385.512,-497.905)"><title>Dynamic connector.925</title><path d="M0 702.52 L0 708.91 L-13.28 708.91 A2.3622 2.3622 -180 1 0 -18 708.91 L-53.98 708.91 L-53.98 826.59 L-61.6 826.59 A2.3622 2.3622 -180 0 0 -66.33 826.59 L-87.92 826.59" class="st38"/></g><g id="shape926-612" transform="translate(407.048,-443.511)"><title>Dynamic connector.926</title><path d="M0 702.52 L-53.52 702.52 A2.3622 2.3622 -180 0 0 -58.25 702.52 L-72.24 702.52 L-72.24 776.48 L-83.14 776.48 A2.3622 2.3622 -180 0 0 -87.86 776.48 L-106.02 776.48" class="st39"/></g><g id="shape927-615" transform="translate(409.448,-389.792)"><title>Dynamic connector.927</title><path d="M0 703.54 L-4.82 703.54 L-4.82 715.67 L-55.92 715.67 A2.3622 2.3622 -180 0 0 -60.65 715.67 L-72.28 715.67 A4.00332 4.00332 -180 1 0 -80.28 715.67 L-85.54 715.67 A2.3622 2.3622 -180 1 0 -90.26 715.67 L-111.86 715.67" class="st40"/></g><g id="shape928-618" transform="translate(398.218,-447.449)"><title>Lock.928</title><path d="M5.49 698.18 C5.49 698.5 5.29 698.78 5.01 698.9 L5.22 700.57 L4.14 700.57 L4.35 698.9 C4.07 698.78 3.87 698.5 3.87 698.18 C3.87 697.74 4.23 697.38 4.68 697.38 C5.13 697.38 5.49 697.74 5.49 698.18 ZM8.64 701.45 L8.64 696.49 C8.64 696.3 8.48 696.14 8.28 696.14 L1.08 696.14 C0.88 696.14 0.72 696.3 0.72 696.49 L0.72 701.45 C0.72 701.65 0.88 701.81 1.08 701.81 L8.28 701.81 C8.48 701.81 8.64 701.65 8.64 701.45 ZM5.76 694.13 C5.73 693.68 5.25 693.3 4.68 693.3 C4.1 693.3 3.63 693.7 3.61 694.2 L3.6 694.2 L3.6 695.43 L5.76 695.43 L5.76 694.13 ZM2.16 694.1 C2.16 694.1 2.16 694.73 2.16 695.43 L2.88 695.43 C2.88 694.73 2.88 694.1 2.88 694.1 L2.89 694.17 C2.93 693.29 3.72 692.6 4.68 692.6 C5.64 692.6 6.43 693.27 6.48 694.1 C6.48 694.1 6.48 694.73 6.48 695.43 L7.2 695.43 C7.2 694.73 7.2 694.1 7.2 694.1 C7.13 692.87 6.03 691.89 4.68 691.89 C3.33 691.89 2.23 692.87 2.17 694.13 L2.16 694.1 ZM8.28 695.43 C8.88 695.43 9.36 695.91 9.36 696.49 L9.36 701.45 C9.36 702.04 8.88 702.52 8.28 702.52 L1.08 702.52 C0.48 702.52 0 702.04 0 701.45 L0 696.49 C0 695.91 0.48 695.43 1.08 695.43 L1.44 695.43 L1.44 694.1 L1.45 694.1 C1.53 692.47 2.94 691.18 4.68 691.18 C6.42 691.18 7.83 692.47 7.91 694.1 L7.92 694.1 L7.92 695.43 L8.28 695.43 Z" class="st41"/></g><g id="shape948-620" transform="translate(524.956,-389.339)"><title>Rectangle.948</title><rect width="90.949" height="59.528" x="0" y="642.989" class="st7"/></g><g id="shape949-622" transform="translate(555.205,-424.417)"><title>Rectangle.949</title><rect width="48.189" height="22.913" x="0" y="679.603" class="st7"/></g><g id="shape950-624" transform="translate(527.903,-447.213)"><title>Sheet.950</title><desc>Pod (Deployement - 1 replica)</desc><rect width="75.118" height="10.158" x="0" y="692.359" class="st9"/><text x="7.24" y="698.94" class="st29">Pod (D<tspan class="st11">eployement </tspan><tspan class="st11">-</tspan><tspan class="st11"> </tspan><tspan class="st11">1 replica</tspan>)</text></g><g id="shape951-631" transform="translate(556.622,-437.173)"><title>Sheet.951</title><desc>Otel Collector Container</desc><rect width="45.354" height="10.158" x="0" y="692.359" class="st9"/><text x="11.48" y="696.24" class="st30">Otel Collector <tspan x="14.68" class="st11" dy="1.2em">Container</tspan></text></g><g id="shape952-635" transform="translate(532.527,-395.191)"><title>Rectangle.952</title><rect width="28.346" height="22.913" x="0" y="679.603" class="st7"/></g><g id="shape953-637" transform="translate(524.024,-407.947)"><title>Sheet.953</title><desc>Nginx Container</desc><rect width="45.354" height="10.158" x="0" y="692.359" class="st9"/><text x="9.61" y="698.64" class="st30">Nginx Container</text></g><g id="shape954-640" transform="translate(540.1,-400.11)"><title>Rectangle.954</title><rect width="13.201" height="7.406" x="0" y="695.111" class="st7"/></g><g id="shape955-642" transform="translate(537.828,-400.11)"><title>Sheet.955</title><desc>R.Proxy</desc><rect width="17.745" height="7.391" x="0" y="695.126" class="st9"/><text x="4.26" y="699.72" class="st34">R.Proxy</text></g><g id="shape956-645" transform="translate(567.061,-421.262)"><title>Rectangle.956</title><rect width="7.469" height="3.05" x="0" y="699.466" class="st7"/></g><g id="shape957-647" transform="translate(563,-420.661)"><title>Sheet.957</title><desc>:9106</desc><rect width="15.591" height="4.252" x="0" y="698.265" class="st9"/><text x="5.5" y="700.99" class="st14">:<tspan class="st11">9106</tspan></text></g><g id="shape958-651" transform="translate(543.675,-393.483)"><title>Rectangle.958</title><rect width="7.469" height="3.05" x="0" y="699.466" class="st7"/></g><g id="shape959-653" transform="translate(539.614,-392.882)"><title>Sheet.959</title><desc>:9105</desc><rect width="15.591" height="4.252" x="0" y="698.265" class="st9"/><text x="5.5" y="700.99" class="st32">:9105</text></g><g id="shape960-656" transform="translate(531.262,-393.086)"><title>Dynamic connector.960</title><path d="M5.34 699.07 L5.34 691.79 L8.84 691.79" class="st27"/></g><g id="shape961-659" transform="translate(540.1,-403.813)"><title>Dynamic connector.961</title><path d="M0 702.52 L-2.27 698.83 L-2.27 695.73 L18.84 695.73 L18.84 685.07" class="st27"/></g><g id="shape962-662" transform="translate(523.278,-374.516)"><title>Rectangle.962</title><rect width="7.469" height="3.05" x="0" y="699.466" class="st7"/></g><g id="shape963-664" transform="translate(525.777,-377.706)"><title>Snip Diagonal Corner Rectangle.963</title><path d="M2.55 702.52 L25.51 702.52 L25.51 694.62 L22.96 692.07 L0 692.07 L0 699.97 L2.55 702.52 Z" class="st7"/></g><g id="shape964-666" transform="translate(518.317,-376.456)"><title>Sheet.964</title><desc>OTEL service</desc><rect width="45.354" height="10.158" x="0" y="692.359" class="st9"/><text x="12.43" y="696.24" class="st13">OTEL service</text></g><g id="shape965-669" transform="translate(519.217,-373.915)"><title>Sheet.965</title><desc>:9107</desc><rect width="15.591" height="4.252" x="0" y="698.265" class="st9"/><text x="5.5" y="700.99" class="st14">:<tspan class="st11">9107</tspan></text></g><g id="shape968-673" transform="translate(555.205,-421.262)"><title>Rectangle.968</title><rect width="7.469" height="3.05" x="0" y="699.466" class="st7"/></g><g id="shape969-675" transform="translate(551.288,-420.661)"><title>Sheet.969</title><desc>:8888</desc><rect width="15.591" height="4.252" x="0" y="698.265" class="st9"/><text x="5.5" y="700.99" class="st14">:8888</text></g><g id="shape973-678" transform="translate(532.863,-393.483)"><title>Rectangle.973</title><rect width="7.469" height="3.05" x="0" y="699.466" class="st7"/></g><g id="shape974-680" transform="translate(528.611,-392.882)"><title>Sheet.974</title><desc>:9107</desc><rect width="15.591" height="4.252" x="0" y="698.265" class="st9"/><text x="5.5" y="700.99" class="st32">:9107</text></g><g id="shape975-683" transform="translate(540.487,-374.516)"><title>Rectangle.975</title><rect width="7.469" height="3.05" x="0" y="699.466" class="st7"/></g><g id="shape976-685" transform="translate(536.034,-373.52)"><title>Sheet.976</title><desc>:55668</desc><rect width="15.591" height="4.252" x="0" y="698.265" class="st9"/><text x="4.99" y="700.99" class="st14">:55668</text></g><g id="shape977-688" transform="translate(532.299,-374.516)"><title>Rectangle.977</title><rect width="7.469" height="3.05" x="0" y="699.466" class="st7"/></g><g id="shape978-690" transform="translate(527.53,-373.52)"><title>Sheet.978</title><desc>:9105</desc><rect width="15.591" height="4.252" x="0" y="698.265" class="st9"/><text x="5.5" y="700.99" class="st14">:<tspan class="st11">9105</tspan></text></g><g id="shape980-694" transform="translate(558.607,-425.533)"><title>Rectangle.980</title><path d="M0 702.52 L15.65 702.52 L15.65 689.87 L0 689.87 L0 702.52 Z" class="st42"/></g><g id="shape981-696" transform="translate(583.828,-425.533)"><title>Rectangle.981</title><path d="M0 702.52 L15.65 702.52 L15.65 689.87 L0 689.87 L0 702.52 Z" class="st43"/></g><g id="shape982-698" transform="translate(556.238,-428.026)"><title>Sheet.982</title><desc>Prometheus exporter</desc><rect width="20.388" height="10.158" x="0" y="692.359" class="st9"/><text x="5.23" y="696.84" class="st32">Prometheus <tspan x="6.68" class="st11" dy="1.2em">exporter</tspan></text></g><g id="shape983-702" transform="translate(581.924,-428.026)"><title>Sheet.983</title><desc>OpenCensus Receiver</desc><rect width="20.388" height="10.158" x="0" y="692.359" class="st9"/><text x="5.12" y="696.84" class="st32">OpenCensus<tspan x="6.71" class="st11" dy="1.2em">Receiver</tspan></text></g><g id="shape985-706" transform="translate(520.984,-376.041)"><title>Dynamic connector.985</title><path d="M2.29 702.52 L2.29 709.91 L-3.02 709.91 L-3.02 683.55 L11.88 683.55" class="st20"/></g><g id="shape986-709" transform="translate(532.299,-376.041)"><title>Dynamic connector.986</title><path d="M0 702.52 L-0.85 707.64 L-0.85 690.72 L15.11 690.72 L15.11 685.08" class="st20"/></g><g id="shape987-712" transform="translate(1263.62,299.523) rotate(90)"><title>Rectangle.987</title><rect width="7.469" height="3.05" x="0" y="699.466" class="st7"/></g><g id="shape988-714" transform="translate(1263.02,295.462) rotate(90)"><title>Sheet.988</title><desc>:55668</desc><rect width="15.591" height="4.252" x="0" y="698.265" class="st9"/><text x="4.99" y="700.99" class="st32">:55668</text></g><g id="shape989-717" transform="translate(586.531,-421.121)"><title>Rectangle.989</title><rect width="7.469" height="3.05" x="0" y="699.466" class="st7"/></g><g id="shape990-719" transform="translate(582.47,-420.52)"><title>Sheet.990</title><desc>:55678</desc><rect width="15.591" height="4.252" x="0" y="698.265" class="st9"/><text x="4.99" y="700.99" class="st14">:55678</text></g><g id="shape991-722" transform="translate(571.956,-424.772)"><title>Dynamic connector.991</title><path d="M2.3 695.43 L11.87 695.43" class="st20"/></g><g id="shape992-725" transform="translate(547.955,-376.041)"><title>Dynamic connector.992</title><path d="M0 702.52 L14.67 702.52 L14.67 683.03" class="st20"/></g><g id="shape993-728" transform="translate(554.142,-391.235)"><title>Dynamic connector.993</title><path d="M-6.73 697.22 L-6.73 694.97 L-7.44 694.97 L-7.44 693.64" class="st27"/></g><g id="shape994-731" transform="translate(546.701,-407.303)"><title>Dynamic connector.994</title><path d="M0 702.3 L12.05 700.67 L24.09 700.67 L24.09 688.56" class="st27"/></g><g id="shape995-734" transform="translate(564.288,-394.45)"><title>Dynamic connector.995</title><path d="M-3.19 697.71 L-5.84 697.71 L-5.84 693.15 L-10.99 693.15" class="st27"/></g><g id="shape996-737" transform="translate(553.301,-403.813)"><title>Dynamic connector.996</title><path d="M0 702.52 L6.54 700.31 L36.96 700.31 L36.96 685.21" class="st27"/></g><g id="shape997-740" transform="translate(306.092,-363.474)"><title>Dynamic connector.997</title><path d="M0 699.39 L13.09 699.39 A2.3622 2.3622 0 0 1 17.82 699.39 L42.71 699.39 A2.3622 2.3622 0 0 1 47.43 699.39 L60.05 699.39 A4.46309 4.46309 0 1 1 68.98 699.39 L69.21 699.39 A2.3622 2.3622 0 0 1 73.94 699.39 L90.56 699.39 L90.56 710.39 L229.94 710.39 L229.94 691.47" class="st44"/></g><g id="shape998-743" transform="translate(306.092,-361.348)"><title>Dynamic connector.998</title><path d="M0 701.51 L13.09 701.51 A2.3622 2.3622 0 0 1 17.82 701.51 L42.71 701.51 A2.3622 2.3622 0 0 1 47.43 701.51 L60.05 701.51 A4.46309 4.46309 0 1 1 68.98 701.51 L69.21 701.51 A2.3622 2.3622 0 0 1 73.94 701.51 L88.2 701.51 A2.3622 2.3622 0 1 1 92.92 701.51 L220.92 701.51 L220.92 689.35" class="st44"/></g><g id="shape999-746" transform="translate(497.002,-366.228)"><title>Lock.999</title><path d="M5.49 698.18 C5.49 698.5 5.29 698.78 5.01 698.9 L5.22 700.57 L4.14 700.57 L4.35 698.9 C4.07 698.78 3.87 698.5 3.87 698.18 C3.87 697.74 4.23 697.38 4.68 697.38 C5.13 697.38 5.49 697.74 5.49 698.18 ZM8.64 701.45 L8.64 696.49 C8.64 696.3 8.48 696.14 8.28 696.14 L1.08 696.14 C0.88 696.14 0.72 696.3 0.72 696.49 L0.72 701.45 C0.72 701.65 0.88 701.81 1.08 701.81 L8.28 701.81 C8.48 701.81 8.64 701.65 8.64 701.45 ZM5.76 694.13 C5.73 693.68 5.25 693.3 4.68 693.3 C4.1 693.3 3.63 693.7 3.61 694.2 L3.6 694.2 L3.6 695.43 L5.76 695.43 L5.76 694.13 ZM2.16 694.1 C2.16 694.1 2.16 694.73 2.16 695.43 L2.88 695.43 C2.88 694.73 2.88 694.1 2.88 694.1 L2.89 694.17 C2.93 693.29 3.72 692.6 4.68 692.6 C5.64 692.6 6.43 693.27 6.48 694.1 C6.48 694.1 6.48 694.73 6.48 695.43 L7.2 695.43 C7.2 694.73 7.2 694.1 7.2 694.1 C7.13 692.87 6.03 691.89 4.68 691.89 C3.33 691.89 2.23 692.87 2.17 694.13 L2.16 694.1 ZM8.28 695.43 C8.88 695.43 9.36 695.91 9.36 696.49 L9.36 701.45 C9.36 702.04 8.88 702.52 8.28 702.52 L1.08 702.52 C0.48 702.52 0 702.04 0 701.45 L0 696.49 C0 695.91 0.48 695.43 1.08 695.43 L1.44 695.43 L1.44 694.1 L1.45 694.1 C1.53 692.47 2.94 691.18 4.68 691.18 C6.42 691.18 7.83 692.47 7.91 694.1 L7.92 694.1 L7.92 695.43 L8.28 695.43 Z" class="st45"/></g><g id="shape1000-748" transform="translate(499.409,-343.016)"><title>Lock.1000</title><path d="M5.49 698.18 C5.49 698.5 5.29 698.78 5.01 698.9 L5.22 700.57 L4.14 700.57 L4.35 698.9 C4.07 698.78 3.87 698.5 3.87 698.18 C3.87 697.74 4.23 697.38 4.68 697.38 C5.13 697.38 5.49 697.74 5.49 698.18 ZM8.64 701.45 L8.64 696.49 C8.64 696.3 8.48 696.14 8.28 696.14 L1.08 696.14 C0.88 696.14 0.72 696.3 0.72 696.49 L0.72 701.45 C0.72 701.65 0.88 701.81 1.08 701.81 L8.28 701.81 C8.48 701.81 8.64 701.65 8.64 701.45 ZM5.76 694.13 C5.73 693.68 5.25 693.3 4.68 693.3 C4.1 693.3 3.63 693.7 3.61 694.2 L3.6 694.2 L3.6 695.43 L5.76 695.43 L5.76 694.13 ZM2.16 694.1 C2.16 694.1 2.16 694.73 2.16 695.43 L2.88 695.43 C2.88 694.73 2.88 694.1 2.88 694.1 L2.89 694.17 C2.93 693.29 3.72 692.6 4.68 692.6 C5.64 692.6 6.43 693.27 6.48 694.1 C6.48 694.1 6.48 694.73 6.48 695.43 L7.2 695.43 C7.2 694.73 7.2 694.1 7.2 694.1 C7.13 692.87 6.03 691.89 4.68 691.89 C3.33 691.89 2.23 692.87 2.17 694.13 L2.16 694.1 ZM8.28 695.43 C8.88 695.43 9.36 695.91 9.36 696.49 L9.36 701.45 C9.36 702.04 8.88 702.52 8.28 702.52 L1.08 702.52 C0.48 702.52 0 702.04 0 701.45 L0 696.49 C0 695.91 0.48 695.43 1.08 695.43 L1.44 695.43 L1.44 694.1 L1.45 694.1 C1.53 692.47 2.94 691.18 4.68 691.18 C6.42 691.18 7.83 692.47 7.91 694.1 L7.92 694.1 L7.92 695.43 L8.28 695.43 Z" class="st45"/></g><g id="shape1001-750" transform="translate(588.139,-314.224)"><title>Rectangle.1001</title><rect width="56.312" height="59.528" x="0" y="642.989" class="st7"/></g><g id="shape1002-752" transform="translate(578.926,-370.962)"><title>Sheet.1002</title><desc>Pod</desc><rect width="75.118" height="10.158" x="0" y="692.359" class="st9"/><text x="33.64" y="698.94" class="st29">Pod</text></g><g id="shape1003-755" transform="translate(592.2,-346.819)"><title>Rectangle.1003</title><rect width="48.189" height="22.913" x="0" y="679.603" class="st7"/></g><g id="shape1004-757" transform="translate(592.2,-319.772)"><title>Rectangle.1004</title><rect width="48.189" height="15.366" x="0" y="687.151" class="st7"/></g><g id="shape1005-759" transform="translate(624.09,-343.769)"><title>Rectangle.1005</title><rect width="7.469" height="3.05" x="0" y="699.466" class="st7"/></g><g id="shape1006-761" transform="translate(620.029,-343.276)"><title>Sheet.1006</title><desc>:55678</desc><rect width="15.591" height="4.252" x="0" y="698.265" class="st9"/><text x="4.99" y="700.99" class="st14">:55678</text></g><g id="shape1013-764" transform="translate(592.774,-359.876)"><title>Sheet.1013</title><desc>Otel Agent Side Car Container</desc><rect width="45.354" height="10.158" x="0" y="692.359" class="st9"/><text x="13.96" y="696.24" class="st30">Otel Agent <tspan x="7.63" class="st11" dy="1.2em">Side Car Container</tspan></text></g><g id="shape1014-768" transform="translate(594.76,-348.236)"><title>Rectangle.1014</title><path d="M0 702.52 L15.65 702.52 L15.65 689.87 L0 689.87 L0 702.52 Z" class="st42"/></g><g id="shape1015-770" transform="translate(619.98,-348.236)"><title>Rectangle.1015</title><path d="M0 702.52 L15.65 702.52 L15.65 689.87 L0 689.87 L0 702.52 Z" class="st43"/></g><g id="shape1016-772" transform="translate(592.391,-350.729)"><title>Sheet.1016</title><desc>OpenCensus exporter</desc><rect width="20.388" height="10.158" x="0" y="692.359" class="st9"/><text x="5.12" y="696.84" class="st32">OpenCensus <tspan x="6.68" class="st11" dy="1.2em">exporter</tspan></text></g><g id="shape1017-776" transform="translate(618.077,-350.729)"><title>Sheet.1017</title><desc>OpenCensus Receiver</desc><rect width="20.388" height="10.158" x="0" y="692.359" class="st9"/><text x="5.12" y="696.84" class="st32">OpenCensus<tspan x="6.71" class="st11" dy="1.2em">Receiver</tspan></text></g><g id="shape1018-780" transform="translate(608.108,-347.475)"><title>Dynamic connector.1018</title><path d="M2.3 695.43 L11.87 695.43" class="st20"/></g><g id="shape1019-783" transform="translate(592.2,-322.376)"><title>Sheet.1019</title><desc>Sample Metric application container</desc><rect width="45.354" height="10.158" x="0" y="692.359" class="st9"/><text x="10.87" y="696.24" class="st30">Sample Metric <tspan x="5.43" class="st11" dy="1.2em">application container</tspan></text></g><g id="shape1020-787" transform="translate(629.146,-346.54)"><title>Dynamic connector.1020</title><path d="M-1.32 705.29 L-1.32 707.95 L-12.85 707.95 L-12.85 713.92" class="st27"/></g><g id="shape1021-790" transform="translate(594.76,-354.561)"><title>Dynamic connector.1021</title><path d="M0 702.52 L-50.54 702.52 L-50.54 682.56" class="st46"/></g><g id="shape1022-793" transform="translate(567.381,-355.323)"><title>Lock.1022</title><path d="M5.49 698.18 C5.49 698.5 5.29 698.78 5.01 698.9 L5.22 700.57 L4.14 700.57 L4.35 698.9 C4.07 698.78 3.87 698.5 3.87 698.18 C3.87 697.74 4.23 697.38 4.68 697.38 C5.13 697.38 5.49 697.74 5.49 698.18 ZM8.64 701.45 L8.64 696.49 C8.64 696.3 8.48 696.14 8.28 696.14 L1.08 696.14 C0.88 696.14 0.72 696.3 0.72 696.49 L0.72 701.45 C0.72 701.65 0.88 701.81 1.08 701.81 L8.28 701.81 C8.48 701.81 8.64 701.65 8.64 701.45 ZM5.76 694.13 C5.73 693.68 5.25 693.3 4.68 693.3 C4.1 693.3 3.63 693.7 3.61 694.2 L3.6 694.2 L3.6 695.43 L5.76 695.43 L5.76 694.13 ZM2.16 694.1 C2.16 694.1 2.16 694.73 2.16 695.43 L2.88 695.43 C2.88 694.73 2.88 694.1 2.88 694.1 L2.89 694.17 C2.93 693.29 3.72 692.6 4.68 692.6 C5.64 692.6 6.43 693.27 6.48 694.1 C6.48 694.1 6.48 694.73 6.48 695.43 L7.2 695.43 C7.2 694.73 7.2 694.1 7.2 694.1 C7.13 692.87 6.03 691.89 4.68 691.89 C3.33 691.89 2.23 692.87 2.17 694.13 L2.16 694.1 ZM8.28 695.43 C8.88 695.43 9.36 695.91 9.36 696.49 L9.36 701.45 C9.36 702.04 8.88 702.52 8.28 702.52 L1.08 702.52 C0.48 702.52 0 702.04 0 701.45 L0 696.49 C0 695.91 0.48 695.43 1.08 695.43 L1.44 695.43 L1.44 694.1 L1.45 694.1 C1.53 692.47 2.94 691.18 4.68 691.18 C6.42 691.18 7.83 692.47 7.91 694.1 L7.92 694.1 L7.92 695.43 L8.28 695.43 Z" class="st47"/></g><g id="shape1024-795" transform="translate(600.895,-542.409)"><title>Sheet.1024</title><desc>K8s space</desc><rect width="45.354" height="10.158" x="0" y="692.359" class="st9"/><text x="14.76" y="698.64" class="st13">K8s space</text></g><g id="shape1427-798" transform="translate(398.544,-179.551)"><title>Rectangle.1427</title><rect width="78.476" height="51.864" x="0" y="650.653" class="st7"/></g><g id="shape1429-800" transform="translate(405.304,-135.209)"><title>Rectangle.1429</title><rect width="48.189" height="19.37" x="0" y="683.147" class="st7"/></g><g id="shape1430-802" transform="translate(395.383,-151.508)"><title>Sheet.1430</title><desc>Pod (DS) - Privileged</desc><rect width="75.118" height="10.158" x="0" y="692.359" class="st9"/><text x="17.55" y="698.94" class="st12">Pod (DS) - Privileged</text></g><g id="shape1431-805" transform="translate(401.761,-145.248)"><title>Sheet.1431</title><desc>Node Exporter Container</desc><rect width="55.276" height="10.158" x="0" y="692.359" class="st9"/><text x="7.33" y="698.64" class="st13">Node Exporter Container</text></g><g id="shape1433-808" transform="translate(405.304,-131.429)"><title>Rectangle.1433</title><rect width="7.469" height="3.05" x="0" y="699.466" class="st7"/></g><g id="shape1434-810" transform="translate(401.243,-130.828)"><title>Sheet.1434</title><desc>:9100</desc><rect width="15.591" height="4.252" x="0" y="698.265" class="st9"/><text x="5.5" y="700.99" class="st14">:9100</text></g><g id="shape1435-813" transform="translate(426.564,-211.656)"><title>Rectangle.1435</title><rect width="48.189" height="19.37" x="0" y="683.147" class="st7"/></g><g id="shape1436-815" transform="translate(448.958,-204.309)"><title>Rectangle.1436</title><rect width="3.402" height="10.916" x="0" y="691.601" class="st28"/></g><g id="shape1437-817" transform="translate(399.635,-228.782)"><title>Sheet.1437</title><desc>Pod (DS) - Privileged</desc><rect width="75.118" height="10.158" x="0" y="692.359" class="st9"/><text x="16.98" y="698.94" class="st29">Pod (DS) - Privileged</text></g><g id="shape1438-820" transform="translate(432.233,-220.869)"><title>Sheet.1438</title><desc>Collectd Container</desc><rect width="45.354" height="10.158" x="0" y="692.359" class="st9"/><text x="7.62" y="698.64" class="st30">Collectd<tspan class="st11"> </tspan><tspan class="st11">Container</tspan></text></g><g id="shape1439-825" transform="translate(463.414,-204.309)"><title>Rectangle.1439</title><path d="M0 702.52 L3.4 702.52 L3.4 691.6 L0 691.6 L0 702.52 Z" class="st31"/></g><g id="shape1440-827" transform="translate(458.029,-204.309)"><title>Rectangle.1440</title><rect width="3.402" height="10.916" x="0" y="691.601" class="st28"/></g><g id="shape1441-829" transform="translate(452.643,-204.309)"><title>Rectangle.1441</title><rect width="3.402" height="10.916" x="0" y="691.601" class="st28"/></g><g id="shape1442-831" transform="translate(467.95,-204.357)"><title>Rectangle.1442</title><rect width="2.268" height="10.916" x="0" y="691.601" class="st28"/></g><g id="shape1443-833" transform="translate(448.816,-214.727)"><title>Rectangle.1443</title><rect width="23.528" height="4.252" x="0" y="698.265" class="st28"/></g><g id="shape1444-835" transform="translate(439.32,-211.774)"><title>Sheet.1444</title><desc>CollectD plugins</desc><rect width="45.354" height="10.158" x="0" y="692.359" class="st9"/><text x="16.16" y="698.04" class="st32">CollectD plugins</text></g><g id="shape1445-838" transform="translate(464.45,-203.362)"><title>Sheet.1445</title><desc>Other</desc><rect width="7.469" height="10.158" x="0" y="692.359" class="st9"/><text x="4" y="695.34" class="st33">O<tspan x="4" class="st11" dy="1.2em">t</tspan><tspan x="4" class="st11" dy="1.2em">h</tspan><tspan x="4" class="st11" dy="1.2em">e</tspan><tspan x="4" class="st11" dy="1.2em">r</tspan></text></g><g id="shape1446-845" transform="translate(449.525,-204.309)"><title>Sheet.1446</title><desc>OVS</desc><rect width="6.296" height="10.158" x="0" y="692.359" class="st9"/><text x="4" y="695.64" class="st32">O<tspan x="4" class="st11" dy="1.2em">V</tspan><tspan x="4" class="st11" dy="1.2em">S</tspan></text></g><g id="shape1447-850" transform="translate(454.91,-204.309)"><title>Sheet.1447</title><desc>RDT</desc><rect width="6.296" height="10.158" x="0" y="692.359" class="st9"/><text x="4" y="695.64" class="st32">R<tspan x="4" class="st11" dy="1.2em">D</tspan><tspan x="4" class="st11" dy="1.2em">T</tspan></text></g><g id="shape1448-855" transform="translate(460.58,-204.309)"><title>Sheet.1448</title><desc>OPAE</desc><rect width="7.469" height="10.158" x="0" y="692.359" class="st9"/><text x="4" y="694.44" class="st32">O<tspan x="4" class="st11" dy="1.2em">P</tspan><tspan x="4" class="st11" dy="1.2em">A</tspan><tspan x="4" class="st11" dy="1.2em">E</tspan></text></g><g id="shape1449-861" transform="translate(403.887,-182.43)"><title>Rectangle.1449</title><rect width="28.346" height="22.913" x="0" y="679.603" class="st7"/></g><g id="shape1450-863" transform="translate(395.383,-195.186)"><title>Sheet.1450</title><desc>Nginx Container</desc><rect width="45.354" height="10.158" x="0" y="692.359" class="st9"/><text x="9.61" y="698.64" class="st30">Nginx Container</text></g><g id="shape1451-866" transform="translate(446.063,-203.53)"><title>Sheet.1451</title><desc>HttpWr I T e</desc><rect width="6.296" height="10.158" x="0" y="692.359" class="st9"/><text x="4" y="692.94" class="st33">H<tspan x="4" class="st11" dy="1.2em">t</tspan><tspan x="4" class="st11" dy="1.2em">t</tspan><tspan x="4" class="st11" dy="1.2em">p</tspan><tspan x="4" class="st11" dy="1.2em">W</tspan><tspan x="4" class="st11" dy="1.2em">r</tspan><tspan x="4" class="st11" dy="1.2em">I</tspan><tspan x="4" class="st11" dy="1.2em">T</tspan><tspan x="4" class="st11" dy="1.2em">e</tspan></text></g><g id="shape1452-877" transform="translate(411.459,-187.349)"><title>Rectangle.1452</title><rect width="13.201" height="7.406" x="0" y="695.111" class="st7"/></g><g id="shape1453-879" transform="translate(409.188,-187.349)"><title>Sheet.1453</title><desc>R.Proxy</desc><rect width="17.745" height="7.391" x="0" y="695.126" class="st9"/><text x="4.26" y="699.72" class="st34">R.Proxy</text></g><g id="shape1454-882" transform="translate(438.42,-208.501)"><title>Rectangle.1454</title><rect width="7.469" height="3.05" x="0" y="699.466" class="st7"/></g><g id="shape1455-884" transform="translate(434.359,-207.9)"><title>Sheet.1455</title><desc>:9104</desc><rect width="15.591" height="4.252" x="0" y="698.265" class="st9"/><text x="5.5" y="700.99" class="st14">:910<tspan class="st11">4</tspan></text></g><g id="shape1456-888" transform="translate(1084.43,511.958) rotate(90)"><title>Rectangle.1456</title><rect width="7.469" height="3.05" x="0" y="699.466" class="st7"/></g><g id="shape1457-890" transform="translate(1083.78,507.635) rotate(90)"><title>Sheet.1457</title><desc>N: 9103</desc><rect width="15.591" height="4.252" x="0" y="698.265" class="st9"/><text x="4.63" y="700.99" class="st14">N: 910<tspan class="st11">3</tspan></text></g><g id="shape1458-894" transform="translate(405.304,-70.417)"><title>Rectangle.1458</title><rect width="78.476" height="51.864" x="0" y="650.653" class="st7"/></g><g id="shape1459-896" transform="translate(433.324,-102.522)"><title>Rectangle.1459</title><rect width="48.189" height="19.37" x="0" y="683.147" class="st7"/></g><g id="shape1460-898" transform="translate(406.395,-119.649)"><title>Sheet.1460</title><desc>Pod (DS)</desc><rect width="75.118" height="10.158" x="0" y="692.359" class="st9"/><text x="28.87" y="698.94" class="st29">Pod (DS)</text></g><g id="shape1461-901" transform="translate(438.993,-111.735)"><title>Sheet.1461</title><desc>cAdvisor Container</desc><rect width="45.354" height="10.158" x="0" y="692.359" class="st9"/><text x="7.27" y="698.64" class="st30">cAdvisor Container</text></g><g id="shape1462-904" transform="translate(410.647,-73.2963)"><title>Rectangle.1462</title><rect width="28.346" height="22.913" x="0" y="679.603" class="st7"/></g><g id="shape1463-906" transform="translate(402.143,-86.0523)"><title>Sheet.1463</title><desc>Nginx Container</desc><rect width="45.354" height="10.158" x="0" y="692.359" class="st9"/><text x="9.61" y="698.64" class="st30">Nginx Container</text></g><g id="shape1464-909" transform="translate(418.219,-78.2154)"><title>Rectangle.1464</title><rect width="13.201" height="7.406" x="0" y="695.111" class="st7"/></g><g id="shape1465-911" transform="translate(415.948,-78.2154)"><title>Sheet.1465</title><desc>R.Proxy</desc><rect width="17.745" height="7.391" x="0" y="695.126" class="st9"/><text x="4.26" y="699.72" class="st34">R.Proxy</text></g><g id="shape1466-914" transform="translate(445.18,-99.3675)"><title>Rectangle.1466</title><rect width="7.469" height="3.05" x="0" y="699.466" class="st7"/></g><g id="shape1467-916" transform="translate(441.119,-98.7666)"><title>Sheet.1467</title><desc>:9106</desc><rect width="15.591" height="4.252" x="0" y="698.265" class="st9"/><text x="5.5" y="700.99" class="st14">:910<tspan class="st11">6</tspan></text></g><g id="shape1468-920" transform="translate(1110.22,620.567) rotate(90)"><title>Rectangle.1468</title><rect width="7.469" height="3.05" x="0" y="699.466" class="st7"/></g><g id="shape1469-922" transform="translate(1109.62,616.506) rotate(90)"><title>Sheet.1469</title><desc>:9105</desc><rect width="15.591" height="4.252" x="0" y="698.265" class="st9"/><text x="5.5" y="700.99" class="st14">:910<tspan class="st11">5</tspan></text></g><g id="shape1470-926" transform="translate(407.4,-72.9803)"><title>Dynamic connector.1470</title><path d="M3.35 697.28 L6.01 697.28 L6.01 693.58 L10.82 693.58" class="st27"/></g><g id="shape1471-929" transform="translate(431.421,-81.9184)"><title>Dynamic connector.1471</title><path d="M0 702.52 L17.49 702.52 L17.49 685.07" class="st27"/></g><g id="shape1472-932" transform="translate(424.661,-191.052)"><title>Dynamic connector.1472</title><path d="M0 702.52 L17.49 702.52 L17.49 685.07" class="st27"/></g><g id="shape1473-935" transform="translate(384.961,-181.851)"><title>Dynamic connector.1473</title><path d="M0 697.54 L5.31 697.54 L5.31 693.32 L26.5 693.32" class="st27"/></g><g id="shape1474-938" transform="translate(520.107,-163.754)"><title>Rectangle.1474</title><rect width="78.476" height="51.864" x="0" y="650.653" class="st7"/></g><g id="shape1475-940" transform="translate(548.127,-195.86)"><title>Rectangle.1475</title><rect width="48.189" height="19.37" x="0" y="683.147" class="st7"/></g><g id="shape1476-942" transform="translate(521.198,-212.986)"><title>Sheet.1476</title><desc>Pod (DS) Privileged</desc><rect width="75.118" height="10.158" x="0" y="692.359" class="st9"/><text x="18.31" y="698.94" class="st29">Pod (DS) <tspan class="st11">Privileged</tspan></text></g><g id="shape1477-946" transform="translate(553.796,-205.073)"><title>Sheet.1477</title><desc>PCM Container</desc><rect width="45.354" height="10.158" x="0" y="692.359" class="st9"/><text x="10.41" y="698.64" class="st30">PCM Container</text></g><g id="shape1478-949" transform="translate(525.45,-166.634)"><title>Rectangle.1478</title><rect width="28.346" height="22.913" x="0" y="679.603" class="st7"/></g><g id="shape1479-951" transform="translate(516.946,-179.39)"><title>Sheet.1479</title><desc>Nginx Container</desc><rect width="45.354" height="10.158" x="0" y="692.359" class="st9"/><text x="9.61" y="698.64" class="st30">Nginx Container</text></g><g id="shape1480-954" transform="translate(533.022,-171.553)"><title>Rectangle.1480</title><rect width="13.201" height="7.406" x="0" y="695.111" class="st7"/></g><g id="shape1481-956" transform="translate(530.751,-171.553)"><title>Sheet.1481</title><desc>R.Proxy</desc><rect width="17.745" height="7.391" x="0" y="695.126" class="st9"/><text x="4.26" y="699.72" class="st34">R.Proxy</text></g><g id="shape1482-959" transform="translate(559.983,-192.705)"><title>Rectangle.1482</title><rect width="7.469" height="3.05" x="0" y="699.466" class="st7"/></g><g id="shape1483-961" transform="translate(555.922,-192.104)"><title>Sheet.1483</title><desc>:9738</desc><rect width="15.591" height="4.252" x="0" y="698.265" class="st9"/><text x="5.5" y="700.99" class="st14">:9<tspan class="st11">738</tspan></text></g><g id="shape1484-965" transform="translate(536.598,-164.925)"><title>Rectangle.1484</title><rect width="7.469" height="3.05" x="0" y="699.466" class="st7"/></g><g id="shape1485-967" transform="translate(532.537,-164.324)"><title>Sheet.1485</title><desc>9739</desc><rect width="15.591" height="4.252" x="0" y="698.265" class="st9"/><text x="5.77" y="700.99" class="st14">9739</text></g><g id="shape1486-970" transform="translate(543.764,-164.529)"><title>Dynamic connector.1486</title><path d="M-3.43 699.07 L-3.43 696.82 L-12.07 696.82 L-12.07 691.79 L-10.74 691.79" class="st27"/></g><g id="shape1487-973" transform="translate(546.224,-175.256)"><title>Dynamic connector.1487</title><path d="M0 702.52 L17.49 702.52 L17.49 685.07" class="st27"/></g><g id="shape1488-976" transform="translate(524.55,-149.227)"><title>Rectangle.1488</title><rect width="7.469" height="3.05" x="0" y="699.466" class="st7"/></g><g id="shape1489-978" transform="translate(519.781,-152.416)"><title>Snip Diagonal Corner Rectangle.1489</title><path d="M2.55 702.52 L25.51 702.52 L25.51 694.62 L22.96 692.07 L0 692.07 L0 699.97 L2.55 702.52 Z" class="st7"/></g><g id="shape1490-980" transform="translate(512.321,-151.167)"><title>Sheet.1490</title><desc>PCM service</desc><rect width="45.354" height="10.158" x="0" y="692.359" class="st9"/><text x="12.74" y="696.24" class="st13">PCM service</text></g><g id="shape1491-983" transform="translate(520.097,-148.231)"><title>Sheet.1491</title><desc>:3000</desc><rect width="15.591" height="4.252" x="0" y="698.265" class="st9"/><text x="5.5" y="700.99" class="st14">:<tspan class="st11">3000</tspan></text></g><g id="shape1492-987" transform="translate(530.956,-150.752)"><title>Dynamic connector.1492</title><path d="M1.06 702.52 L15.67 702.52 L15.67 686.82 L13.11 686.82" class="st20"/></g><g id="shape1551-990" transform="translate(590.973,-233.68)"><title>Sheet.1551</title><desc>K8s space</desc><rect width="45.354" height="10.158" x="0" y="692.359" class="st9"/><text x="14.76" y="698.64" class="st13">K8s space</text></g><g id="shape1552-993" transform="translate(564.753,-55.9859)"><title>Rectangle.1552</title><rect width="56.312" height="59.528" x="0" y="642.989" class="st7"/></g><g id="shape1553-995" transform="translate(555.54,-112.724)"><title>Sheet.1553</title><desc>Pod</desc><rect width="75.118" height="10.158" x="0" y="692.359" class="st9"/><text x="33.64" y="698.94" class="st29">Pod</text></g><g id="shape1554-998" transform="translate(568.815,-88.5808)"><title>Rectangle.1554</title><rect width="48.189" height="22.913" x="0" y="679.603" class="st7"/></g><g id="shape1555-1000" transform="translate(568.815,-61.5336)"><title>Rectangle.1555</title><rect width="48.189" height="15.366" x="0" y="687.151" class="st7"/></g><g id="shape1556-1002" transform="translate(600.704,-85.5306)"><title>Rectangle.1556</title><rect width="7.469" height="3.05" x="0" y="699.466" class="st7"/></g><g id="shape1557-1004" transform="translate(596.643,-85.0375)"><title>Sheet.1557</title><desc>:55678</desc><rect width="15.591" height="4.252" x="0" y="698.265" class="st9"/><text x="4.99" y="700.99" class="st14">:55678</text></g><g id="shape1558-1007" transform="translate(569.389,-101.638)"><title>Sheet.1558</title><desc>Otel Agent Side Car Container</desc><rect width="45.354" height="10.158" x="0" y="692.359" class="st9"/><text x="13.96" y="696.24" class="st30">Otel Agent <tspan x="7.63" class="st11" dy="1.2em">Side Car Container</tspan></text></g><g id="shape1559-1011" transform="translate(571.374,-89.9982)"><title>Rectangle.1559</title><path d="M0 702.52 L15.65 702.52 L15.65 689.87 L0 689.87 L0 702.52 Z" class="st42"/></g><g id="shape1560-1013" transform="translate(596.594,-89.9982)"><title>Rectangle.1560</title><path d="M0 702.52 L15.65 702.52 L15.65 689.87 L0 689.87 L0 702.52 Z" class="st43"/></g><g id="shape1561-1015" transform="translate(569.005,-92.4909)"><title>Sheet.1561</title><desc>OpenCensus exporter</desc><rect width="20.388" height="10.158" x="0" y="692.359" class="st9"/><text x="5.12" y="696.84" class="st32">OpenCensus <tspan x="6.68" class="st11" dy="1.2em">exporter</tspan></text></g><g id="shape1562-1019" transform="translate(594.691,-92.4909)"><title>Sheet.1562</title><desc>OpenCensus Receiver</desc><rect width="20.388" height="10.158" x="0" y="692.359" class="st9"/><text x="5.12" y="696.84" class="st32">OpenCensus<tspan x="6.71" class="st11" dy="1.2em">Receiver</tspan></text></g><g id="shape1563-1023" transform="translate(584.722,-89.2367)"><title>Dynamic connector.1563</title><path d="M2.3 695.43 L11.87 695.43" class="st20"/></g><g id="shape1564-1026" transform="translate(568.815,-64.1376)"><title>Sheet.1564</title><desc>Sample Metric application container</desc><rect width="45.354" height="10.158" x="0" y="692.359" class="st9"/><text x="10.87" y="696.24" class="st30">Sample Metric <tspan x="5.43" class="st11" dy="1.2em">application container</tspan></text></g><g id="shape1565-1030" transform="translate(605.76,-88.3014)"><title>Dynamic connector.1565</title><path d="M-1.32 705.29 L-1.32 707.95 L-12.85 707.95 L-12.85 713.92" class="st27"/></g><g id="shape1566-1033" transform="translate(571.374,-96.3233)"><title>Dynamic connector.1566</title><path d="M0 702.52 L-13 702.52 L-13 668.87 L50.78 668.87 L50.78 493.87 L-27.15 493.87 L-27.15 424.32" class="st46"/></g><g id="shape1567-1036" transform="translate(624.561,-192.705)"><title>Lock.1567</title><path d="M5.49 698.18 C5.49 698.5 5.29 698.78 5.01 698.9 L5.22 700.57 L4.14 700.57 L4.35 698.9 C4.07 698.78 3.87 698.5 3.87 698.18 C3.87 697.74 4.23 697.38 4.68 697.38 C5.13 697.38 5.49 697.74 5.49 698.18 ZM8.64 701.45 L8.64 696.49 C8.64 696.3 8.48 696.14 8.28 696.14 L1.08 696.14 C0.88 696.14 0.72 696.3 0.72 696.49 L0.72 701.45 C0.72 701.65 0.88 701.81 1.08 701.81 L8.28 701.81 C8.48 701.81 8.64 701.65 8.64 701.45 ZM5.76 694.13 C5.73 693.68 5.25 693.3 4.68 693.3 C4.1 693.3 3.63 693.7 3.61 694.2 L3.6 694.2 L3.6 695.43 L5.76 695.43 L5.76 694.13 ZM2.16 694.1 C2.16 694.1 2.16 694.73 2.16 695.43 L2.88 695.43 C2.88 694.73 2.88 694.1 2.88 694.1 L2.89 694.17 C2.93 693.29 3.72 692.6 4.68 692.6 C5.64 692.6 6.43 693.27 6.48 694.1 C6.48 694.1 6.48 694.73 6.48 695.43 L7.2 695.43 C7.2 694.73 7.2 694.1 7.2 694.1 C7.13 692.87 6.03 691.89 4.68 691.89 C3.33 691.89 2.23 692.87 2.17 694.13 L2.16 694.1 ZM8.28 695.43 C8.88 695.43 9.36 695.91 9.36 696.49 L9.36 701.45 C9.36 702.04 8.88 702.52 8.28 702.52 L1.08 702.52 C0.48 702.52 0 702.04 0 701.45 L0 696.49 C0 695.91 0.48 695.43 1.08 695.43 L1.44 695.43 L1.44 694.1 L1.45 694.1 C1.53 692.47 2.94 691.18 4.68 691.18 C6.42 691.18 7.83 692.47 7.91 694.1 L7.92 694.1 L7.92 695.43 L8.28 695.43 Z" class="st47"/></g><g id="shape1571-1038" transform="translate(297.588,-373.83)"><title>Dynamic connector.1571</title><path d="M0 702.52 L21.6 702.52 A2.3622 2.3622 0 0 1 26.32 702.52 L34.86 702.52 A2.3622 2.3622 0 0 1 39.59 702.52 L51.21 702.52 A2.3622 2.3622 0 0 1 55.94 702.52 L75.12 702.52 L75.12 889.52 L77.72 889.52 A2.3622 2.3622 0 0 1 82.44 889.52 L84.32 889.52" class="st38"/></g><g id="shape1572-1041" transform="translate(297.588,-376.639)"><title>Dynamic connector.1572</title><path d="M0 702.52 L21.6 702.52 A2.3622 2.3622 0 0 1 26.32 702.52 L31.58 702.52 A4.00332 4.00332 0 1 1 39.59 702.52 L51.21 702.52 A2.3622 2.3622 0 0 1 55.94 702.52 L80.08 702.52 L80.08 1000.94 L110.12 1000.94" class="st40"/></g><g id="shape1573-1044" transform="translate(405.304,-144.894)"><title>Dynamic connector.1573</title><path d="M0 702.52 L-25.28 702.52 A2.3622 2.3622 -180 0 0 -30 702.52 L-36.8 702.52 L-36.8 477.86 L-51.78 477.86 A2.3622 2.3622 -180 0 0 -56.5 477.86 L-81.4 477.86 A2.3622 2.3622 -180 0 0 -86.12 477.86 L-104.27 477.86" class="st39"/></g><g id="shape1574-1047" transform="translate(306.092,-358.871)"><title>Dynamic connector.1574</title><path d="M0 702.52 L13.09 702.52 A2.3622 2.3622 0 0 1 17.82 702.52 L29.41 702.52 L29.41 894.41 L60.05 894.41 A2.3622 2.3622 0 0 1 64.77 894.41 L69.21 894.41 A2.3622 2.3622 0 0 1 73.94 894.41 L191.55 894.41 L191.55 917.48 L222.19 917.48 L222.19 910.64" class="st37"/></g><g id="shape1579-1050" transform="translate(364.436,-74.4811)"><title>Lock.1579</title><path d="M5.49 698.18 C5.49 698.5 5.29 698.78 5.01 698.9 L5.22 700.57 L4.14 700.57 L4.35 698.9 C4.07 698.78 3.87 698.5 3.87 698.18 C3.87 697.74 4.23 697.38 4.68 697.38 C5.13 697.38 5.49 697.74 5.49 698.18 ZM8.64 701.45 L8.64 696.49 C8.64 696.3 8.48 696.14 8.28 696.14 L1.08 696.14 C0.88 696.14 0.72 696.3 0.72 696.49 L0.72 701.45 C0.72 701.65 0.88 701.81 1.08 701.81 L8.28 701.81 C8.48 701.81 8.64 701.65 8.64 701.45 ZM5.76 694.13 C5.73 693.68 5.25 693.3 4.68 693.3 C4.1 693.3 3.63 693.7 3.61 694.2 L3.6 694.2 L3.6 695.43 L5.76 695.43 L5.76 694.13 ZM2.16 694.1 C2.16 694.1 2.16 694.73 2.16 695.43 L2.88 695.43 C2.88 694.73 2.88 694.1 2.88 694.1 L2.89 694.17 C2.93 693.29 3.72 692.6 4.68 692.6 C5.64 692.6 6.43 693.27 6.48 694.1 C6.48 694.1 6.48 694.73 6.48 695.43 L7.2 695.43 C7.2 694.73 7.2 694.1 7.2 694.1 C7.13 692.87 6.03 691.89 4.68 691.89 C3.33 691.89 2.23 692.87 2.17 694.13 L2.16 694.1 ZM8.28 695.43 C8.88 695.43 9.36 695.91 9.36 696.49 L9.36 701.45 C9.36 702.04 8.88 702.52 8.28 702.52 L1.08 702.52 C0.48 702.52 0 702.04 0 701.45 L0 696.49 C0 695.91 0.48 695.43 1.08 695.43 L1.44 695.43 L1.44 694.1 L1.45 694.1 C1.53 692.47 2.94 691.18 4.68 691.18 C6.42 691.18 7.83 692.47 7.91 694.1 L7.92 694.1 L7.92 695.43 L8.28 695.43 Z" class="st5"/></g><g id="shape1580-1052" transform="translate(393.538,-129.242)"><title>Lock.1580</title><path d="M5.49 698.18 C5.49 698.5 5.29 698.78 5.01 698.9 L5.22 700.57 L4.14 700.57 L4.35 698.9 C4.07 698.78 3.87 698.5 3.87 698.18 C3.87 697.74 4.23 697.38 4.68 697.38 C5.13 697.38 5.49 697.74 5.49 698.18 ZM8.64 701.45 L8.64 696.49 C8.64 696.3 8.48 696.14 8.28 696.14 L1.08 696.14 C0.88 696.14 0.72 696.3 0.72 696.49 L0.72 701.45 C0.72 701.65 0.88 701.81 1.08 701.81 L8.28 701.81 C8.48 701.81 8.64 701.65 8.64 701.45 ZM5.76 694.13 C5.73 693.68 5.25 693.3 4.68 693.3 C4.1 693.3 3.63 693.7 3.61 694.2 L3.6 694.2 L3.6 695.43 L5.76 695.43 L5.76 694.13 ZM2.16 694.1 C2.16 694.1 2.16 694.73 2.16 695.43 L2.88 695.43 C2.88 694.73 2.88 694.1 2.88 694.1 L2.89 694.17 C2.93 693.29 3.72 692.6 4.68 692.6 C5.64 692.6 6.43 693.27 6.48 694.1 C6.48 694.1 6.48 694.73 6.48 695.43 L7.2 695.43 C7.2 694.73 7.2 694.1 7.2 694.1 C7.13 692.87 6.03 691.89 4.68 691.89 C3.33 691.89 2.23 692.87 2.17 694.13 L2.16 694.1 ZM8.28 695.43 C8.88 695.43 9.36 695.91 9.36 696.49 L9.36 701.45 C9.36 702.04 8.88 702.52 8.28 702.52 L1.08 702.52 C0.48 702.52 0 702.04 0 701.45 L0 696.49 C0 695.91 0.48 695.43 1.08 695.43 L1.44 695.43 L1.44 694.1 L1.45 694.1 C1.53 692.47 2.94 691.18 4.68 691.18 C6.42 691.18 7.83 692.47 7.91 694.1 L7.92 694.1 L7.92 695.43 L8.28 695.43 Z" class="st41"/></g><g id="shape1581-1054" transform="translate(502.952,-169.586)"><title>Lock.1581</title><path d="M5.49 698.18 C5.49 698.5 5.29 698.78 5.01 698.9 L5.22 700.57 L4.14 700.57 L4.35 698.9 C4.07 698.78 3.87 698.5 3.87 698.18 C3.87 697.74 4.23 697.38 4.68 697.38 C5.13 697.38 5.49 697.74 5.49 698.18 ZM8.64 701.45 L8.64 696.49 C8.64 696.3 8.48 696.14 8.28 696.14 L1.08 696.14 C0.88 696.14 0.72 696.3 0.72 696.49 L0.72 701.45 C0.72 701.65 0.88 701.81 1.08 701.81 L8.28 701.81 C8.48 701.81 8.64 701.65 8.64 701.45 ZM5.76 694.13 C5.73 693.68 5.25 693.3 4.68 693.3 C4.1 693.3 3.63 693.7 3.61 694.2 L3.6 694.2 L3.6 695.43 L5.76 695.43 L5.76 694.13 ZM2.16 694.1 C2.16 694.1 2.16 694.73 2.16 695.43 L2.88 695.43 C2.88 694.73 2.88 694.1 2.88 694.1 L2.89 694.17 C2.93 693.29 3.72 692.6 4.68 692.6 C5.64 692.6 6.43 693.27 6.48 694.1 C6.48 694.1 6.48 694.73 6.48 695.43 L7.2 695.43 C7.2 694.73 7.2 694.1 7.2 694.1 C7.13 692.87 6.03 691.89 4.68 691.89 C3.33 691.89 2.23 692.87 2.17 694.13 L2.16 694.1 ZM8.28 695.43 C8.88 695.43 9.36 695.91 9.36 696.49 L9.36 701.45 C9.36 702.04 8.88 702.52 8.28 702.52 L1.08 702.52 C0.48 702.52 0 702.04 0 701.45 L0 696.49 C0 695.91 0.48 695.43 1.08 695.43 L1.44 695.43 L1.44 694.1 L1.45 694.1 C1.53 692.47 2.94 691.18 4.68 691.18 C6.42 691.18 7.83 692.47 7.91 694.1 L7.92 694.1 L7.92 695.43 L8.28 695.43 Z" class="st6"/></g><g id="shape1582-1056" transform="translate(393.864,-199.813)"><title>Lock.1582</title><path d="M5.49 698.18 C5.49 698.5 5.29 698.78 5.01 698.9 L5.22 700.57 L4.14 700.57 L4.35 698.9 C4.07 698.78 3.87 698.5 3.87 698.18 C3.87 697.74 4.23 697.38 4.68 697.38 C5.13 697.38 5.49 697.74 5.49 698.18 ZM8.64 701.45 L8.64 696.49 C8.64 696.3 8.48 696.14 8.28 696.14 L1.08 696.14 C0.88 696.14 0.72 696.3 0.72 696.49 L0.72 701.45 C0.72 701.65 0.88 701.81 1.08 701.81 L8.28 701.81 C8.48 701.81 8.64 701.65 8.64 701.45 ZM5.76 694.13 C5.73 693.68 5.25 693.3 4.68 693.3 C4.1 693.3 3.63 693.7 3.61 694.2 L3.6 694.2 L3.6 695.43 L5.76 695.43 L5.76 694.13 ZM2.16 694.1 C2.16 694.1 2.16 694.73 2.16 695.43 L2.88 695.43 C2.88 694.73 2.88 694.1 2.88 694.1 L2.89 694.17 C2.93 693.29 3.72 692.6 4.68 692.6 C5.64 692.6 6.43 693.27 6.48 694.1 C6.48 694.1 6.48 694.73 6.48 695.43 L7.2 695.43 C7.2 694.73 7.2 694.1 7.2 694.1 C7.13 692.87 6.03 691.89 4.68 691.89 C3.33 691.89 2.23 692.87 2.17 694.13 L2.16 694.1 ZM8.28 695.43 C8.88 695.43 9.36 695.91 9.36 696.49 L9.36 701.45 C9.36 702.04 8.88 702.52 8.28 702.52 L1.08 702.52 C0.48 702.52 0 702.04 0 701.45 L0 696.49 C0 695.91 0.48 695.43 1.08 695.43 L1.44 695.43 L1.44 694.1 L1.45 694.1 C1.53 692.47 2.94 691.18 4.68 691.18 C6.42 691.18 7.83 692.47 7.91 694.1 L7.92 694.1 L7.92 695.43 L8.28 695.43 Z" class="st35"/></g><g id="shape1586-1058" transform="translate(1088.03,200.877) rotate(90)"><title>Rectangle.1586</title><rect width="7.469" height="3.05" x="0" y="699.466" class="st7"/></g><g id="shape1587-1060" transform="translate(1087.43,196.816) rotate(90)"><title>Sheet.1587</title><desc>N: 9103</desc><rect width="15.591" height="4.252" x="0" y="698.265" class="st9"/><text x="4.63" y="700.99" class="st14">N: <tspan class="st11">9103</tspan></text></g><g id="shape1589-1064" transform="translate(388.562,-492.67)"><title>Dynamic connector.1589</title><path d="M0 697.28 L5.31 697.28 L5.31 693.58 L24.64 693.58" class="st27"/></g><g id="shape1591-1067" transform="translate(302.407,-265.039)"><title>Dynamic connector.1591</title><path d="M0 702.52 L0 668.32 L-24.46 668.32 L-24.46 657.69" class="st20"/></g></g></svg>